<svg width="2917" height="171" viewBox="0 0 2917 171" fill="none" xmlns="http://www.w3.org/2000/svg">
<path d="M-2.9292 207.814C54.2125 207.71 115.499 209.726 171.83 204.476C260.33 196.226 343.985 177.017 431.826 167.177C464.562 163.511 495.393 161.239 527.187 168.046C552.981 173.602 574.964 183.136 595.984 192.664C633.19 209.507 673.173 231.896 724.7 233.781C757.629 234.989 790.74 225.728 819.179 217.888C850.729 209.191 881.064 199.28 912.604 190.571C941.591 182.573 976.05 172.761 1009.7 174.81C1039.43 176.618 1066.18 186.774 1088.86 196.554C1133.13 215.676 1181.56 247.287 1244.3 244.085C1319.48 240.261 1380.54 210.933 1456.52 207.792" stroke="url(#paint0_linear_465_2979)" stroke-miterlimit="10"/>
<path d="M-2.91895 201.028C53.1991 200.924 113.837 202.946 169.084 197.597C259.144 188.883 343.772 168.363 433.083 157.911C465.667 154.087 496.731 151.645 528.2 158.938C553.964 164.91 575.288 175.263 595.548 185.447C631.203 203.361 669.676 227.607 721.831 229.7C755.662 231.044 789.737 221.013 818.622 212.72C851.226 203.35 882.473 192.686 915.077 183.305C944.469 174.842 979.942 164.26 1014.49 166.418C1044.54 168.297 1070.83 179.087 1092.9 189.429C1135.8 209.529 1182.75 243.407 1246.48 239.993C1321.67 235.966 1380.4 204.284 1456.53 201.05" stroke="url(#paint1_linear_465_2979)" stroke-miterlimit="10"/>
<path d="M-2.8988 194.363C52.4287 194.276 112.692 196.335 167.128 191.03C257.948 182.18 342.809 160.583 432.809 149.848C464.947 146.023 496.589 143.532 527.612 150.875C553.589 157.021 574.619 167.931 594.504 178.547C629.592 197.308 666.929 222.527 720.179 224.559C754.76 225.881 788.926 215.747 818.216 207.076C851.51 197.242 883.334 186.031 916.618 176.186C946.384 167.38 982.009 156.628 1017.27 158.769C1047.67 160.616 1073.52 171.603 1095.31 182.387C1137.88 203.449 1182.58 238.185 1247.81 234.803C1323.19 230.897 1380.15 197.264 1456.6 194.374" stroke="url(#paint2_linear_465_2979)" stroke-miterlimit="10"/>
<path d="M-2.88867 187.807C52.2361 187.621 112.307 189.937 166.509 184.529C256.712 175.509 340.488 153.267 429.779 142.281C461.826 138.341 493.447 135.981 524.45 143.237C550.802 149.416 572.248 160.457 592.426 171.204C628.163 190.238 665.896 215.779 719.845 218.161C754.669 219.696 788.632 209.688 818.054 200.881C851.398 190.894 883.162 179.464 916.496 169.472C946.405 160.501 981.847 149.896 1017.37 152.191C1047.98 154.169 1073.67 165.178 1095.5 176.082C1138.24 197.439 1182.1 231.716 1247.84 228.531C1323.43 224.881 1379.8 190.331 1456.56 187.807" stroke="url(#paint3_linear_465_2979)" stroke-miterlimit="10"/>
<path d="M-2.87866 181.398C52.4792 181.06 112.367 183.982 166.763 178.197C255.364 168.772 337.255 146.165 424.914 134.79C457.346 130.578 488.136 128.387 519.585 135.692C546.413 141.915 568.619 152.841 589.538 163.495C626.46 182.322 665.784 208.12 719.733 211.37C754.345 213.457 788.429 203.421 817.598 194.62C850.537 184.682 881.824 173.242 914.753 163.293C944.601 154.273 980.043 143.75 1015.52 146.477C1046.03 148.82 1072.1 159.987 1094.24 170.772C1137.2 191.697 1182.32 225.329 1247.28 222.237C1323.04 218.626 1379.6 183.879 1456.54 181.398" stroke="url(#paint4_linear_465_2979)" stroke-miterlimit="10"/>
<path d="M-2.85815 175.099C52.8139 174.695 112.54 178.432 167.27 172.307C254.066 162.594 333.82 139.691 419.633 128.054C452.339 123.607 482.41 121.624 514.214 128.835C541.457 135.015 564.555 145.657 586.254 156.229C624.413 174.804 665.551 200.509 719.45 204.547C753.747 207.12 787.568 197.291 816.473 188.528C848.855 178.694 879.483 167.325 911.844 157.496C941.601 148.46 976.709 138.238 1012.02 141.352C1042.57 144.051 1069.1 155.267 1091.73 165.937C1135.26 186.425 1181.86 219.216 1246.32 216.167C1322.43 212.572 1379.29 177.601 1456.58 175.132" stroke="url(#paint5_linear_465_2979)" stroke-miterlimit="10"/>
<path d="M-2.83801 168.92C53.2192 168.532 112.915 173.258 168.03 166.822C252.84 156.928 330.272 133.791 414.069 121.951C446.907 117.313 476.41 115.57 508.477 122.574C536.207 128.628 560.167 138.964 582.707 149.345C622.457 167.587 665.034 192.921 719.085 197.701C752.977 200.695 786.199 191.292 814.821 182.589C846.493 172.952 876.341 161.681 907.993 152.033C937.638 142.991 972.067 133.277 1007.16 136.735C1037.85 139.768 1064.93 150.94 1088.25 161.463C1132.65 181.497 1180.91 213.282 1245.03 210.25C1321.6 206.628 1378.9 171.422 1456.65 168.936" stroke="url(#paint6_linear_465_2979)" stroke-miterlimit="10"/>
<path d="M-2.828 162.861C53.6853 162.555 113.361 168.418 168.972 161.703C251.654 151.721 326.623 128.377 408.262 116.472C441.079 111.675 470.177 110.184 502.406 116.882C530.633 122.749 555.433 132.725 578.896 142.789C620.45 160.616 664.325 185.343 718.578 190.812C784.051 197.417 850.212 163.042 903.27 146.837C932.803 137.812 966.3 128.77 1001.09 132.556C1032.03 135.927 1059.67 146.99 1083.79 157.354C1129.31 176.919 1179.38 207.568 1243.33 204.519C1320.47 200.848 1378.32 165.385 1456.63 162.861" stroke="url(#paint7_linear_465_2979)" stroke-miterlimit="10"/>
<path d="M-2.80762 156.928C54.2023 156.759 113.888 163.877 170.077 156.928C250.539 146.941 322.924 123.487 402.292 111.544C434.998 106.627 463.812 105.403 496.133 111.713C524.876 117.335 550.538 126.869 574.923 136.615C618.281 153.934 663.463 177.836 717.99 183.983C782.47 191.238 845.783 157.857 897.858 141.915C926.651 133.113 960.219 124.241 994.06 128.775C1025.48 132.982 1053.16 143.182 1078.64 153.563C1125.47 172.63 1177.46 202.039 1241.42 198.958C1319.21 195.215 1377.68 159.485 1456.65 156.89" stroke="url(#paint8_linear_465_2979)" stroke-miterlimit="10"/>
<path d="M-2.78748 151.11C54.7596 151.11 114.506 159.594 171.323 152.388C249.495 142.472 319.225 118.919 396.251 107.042C530.035 86.3961 599.825 162.615 717.341 177.203C780.686 185.075 840.797 152.896 891.928 137.276C920.591 128.535 952.861 120.575 986.276 125.366C1018.09 129.928 1046.42 139.904 1072.92 150.088C1121.21 168.663 1175.22 196.734 1239.31 193.604C1317.83 189.779 1376.98 153.77 1456.68 151.11" stroke="url(#paint9_linear_465_2979)" stroke-miterlimit="10"/>
<path d="M-2.76709 145.417C55.3374 145.646 115.185 155.524 172.682 148.105C248.522 138.32 315.586 114.712 390.211 102.939C521.227 82.2765 601.021 154.841 716.642 170.472C778.892 178.896 835.395 148.143 885.594 132.824C914.135 124.115 944.996 117.204 977.935 122.214C1010.17 127.131 1039.22 136.855 1066.79 146.826C1116.63 164.855 1172.7 191.577 1237.06 188.375C1316.35 184.436 1376.24 148.165 1456.71 145.417" stroke="url(#paint10_linear_465_2979)" stroke-miterlimit="10"/>
<path d="M-2.74658 139.844C55.9356 140.309 115.905 151.629 174.121 144.024C247.641 134.419 311.958 110.784 384.272 99.1694C512.511 78.567 602.177 147.165 715.923 163.839C777.058 172.799 829.72 143.559 879.037 128.54C907.476 119.881 936.807 114.079 969.239 119.253C1001.92 124.492 1031.72 134.004 1060.38 143.729C1111.83 161.211 1169.96 186.539 1234.65 183.267C1314.71 179.208 1375.4 142.663 1456.67 139.822" stroke="url(#paint11_linear_465_2979)" stroke-miterlimit="10"/>
<path d="M-2.72644 134.392C56.5233 135.096 116.665 147.864 175.651 140.101C246.901 130.715 308.563 107.069 378.546 95.651C504.059 75.1689 603.312 139.647 715.193 157.321C775.223 166.806 823.932 139.123 872.408 124.394C900.726 115.789 928.628 111.129 960.523 116.488C993.665 122.061 1024.24 131.332 1053.98 140.817C1107.04 157.753 1167.22 181.683 1232.31 178.328C1313.21 174.154 1374.65 137.353 1456.73 134.392" stroke="url(#paint12_linear_465_2979)" stroke-miterlimit="10"/>
<path d="M-2.70605 129.065C57.091 130.004 117.435 144.187 177.101 136.293C246.161 127.153 305.218 103.513 372.971 92.3182C496.001 71.9945 604.457 132.277 714.524 150.94C773.46 160.938 818.206 134.812 865.892 120.345C894.088 111.795 920.621 108.277 951.908 113.789C985.506 119.701 1016.85 128.759 1047.65 137.981C1102.27 154.338 1164.46 176.918 1230 173.493C1311.71 169.204 1373.91 132.102 1456.79 129.076" stroke="url(#paint13_linear_465_2979)" stroke-miterlimit="10"/>
<path d="M-2.68579 123.853C57.7092 125.017 118.195 140.56 178.59 132.556C245.573 123.678 302.137 100.054 367.782 89.1004C488.451 68.9625 605.582 125.06 713.805 144.712C771.757 155.234 812.5 130.556 859.527 116.379C887.632 107.911 912.777 105.452 943.537 111.123C977.57 117.373 1009.68 126.251 1041.48 135.206C1097.6 151 1161.7 172.253 1227.69 168.74C1310.18 164.342 1373.11 126.972 1456.75 123.853" stroke="url(#paint14_linear_465_2979)" stroke-miterlimit="10"/>
<path d="M-2.66553 118.766C58.2971 120.121 118.956 136.943 180.03 128.857C245.097 120.247 299.32 96.6233 362.999 85.9261C424.772 75.5457 490.488 87.2646 548.187 99.7866C603.829 111.866 656.724 127.71 713.196 138.664C770.419 149.765 806.916 126.251 853.588 112.44C915.564 94.1102 979.04 117.357 1035.77 132.43C1093.24 147.684 1159.15 167.669 1225.58 164.079C1308.8 159.589 1372.41 121.957 1456.79 118.761" stroke="url(#paint15_linear_465_2979)" stroke-miterlimit="10"/>
<path d="M-2.64526 113.795C58.8849 115.308 119.554 133.293 181.408 125.148C244.742 116.8 296.806 93.1924 358.772 82.73C419.978 72.3824 487.427 83.6206 545.4 95.0882C602.166 106.321 656.197 121.154 712.659 132.824C769.122 144.493 802.101 122.132 848.176 108.517C908.743 90.6246 974.864 115.619 1030.61 129.633C1089.29 144.384 1156.87 163.156 1223.66 159.518C1307.53 154.945 1371.77 117.062 1456.77 113.795" stroke="url(#paint16_linear_465_2979)" stroke-miterlimit="10"/>
<path d="M-2.625 108.949C59.4829 110.588 120.101 129.578 182.675 121.383C244.499 113.292 294.647 89.6957 354.972 79.4355C415.711 69.1371 484.701 79.9163 542.937 90.4333C600.707 100.874 655.822 114.816 712.193 127.202C738.788 133.042 758.277 133.282 783.99 125.748C804.889 119.624 822.564 110.73 843.432 104.562C871.274 96.3228 893.449 96.5523 922.608 102.677C957.645 110.047 991.78 118.52 1026.16 126.754C1085.82 141.002 1154.87 158.682 1221.97 155.01C1306.41 150.388 1371.2 112.254 1456.8 108.949" stroke="url(#paint17_linear_465_2979)" stroke-miterlimit="10"/>
<path d="M-2.60474 104.217C60.0808 105.856 120.516 125.754 183.82 117.532C244.418 109.659 292.853 85.9753 351.961 75.9774C412.387 65.7554 482.643 76.0866 541.113 85.8114C599.582 95.5362 655.72 108.758 711.909 121.87C737.875 127.928 756.858 128.786 782.348 121.29C802.557 115.346 819.422 106.572 839.581 100.584C867.27 92.3565 889.101 93.2306 917.753 99.5572C952.962 107.332 987.624 115.789 1022.65 123.793C1083.07 137.593 1153.46 154.289 1220.66 150.607C1305.57 145.958 1370.79 107.594 1456.81 104.267" stroke="url(#paint18_linear_465_2979)" stroke-miterlimit="10"/>
<path d="M-2.58447 99.6172C60.6889 101.212 120.78 121.798 184.793 113.554C244.489 105.856 291.414 81.9924 349.701 72.2895C410.046 62.2314 481.062 72.0928 539.896 81.1237C599.207 90.2202 655.832 102.89 711.788 116.723C737.227 123.006 755.997 124.328 781.294 116.832C800.956 111.014 817.142 102.294 836.743 96.4211C864.301 88.166 886.111 89.5045 914.327 96.0715C949.587 104.267 984.655 112.746 1020.22 120.58C1081.03 133.982 1152.6 149.815 1219.75 146.16C1304.99 141.516 1370.53 102.933 1456.91 99.6172" stroke="url(#paint19_linear_465_2979)" stroke-miterlimit="10"/>
<path d="M-2.56421 95.1319C61.2869 96.5797 120.861 117.663 185.584 109.397C244.661 101.852 290.573 77.884 348.161 68.2958C408.313 58.287 480.262 67.9353 539.248 76.4035C599.166 85.0083 656.045 97.3336 711.737 111.915C736.761 118.471 755.632 120.056 780.797 112.511C800.054 106.736 815.733 98.0111 834.959 92.1817C862.415 83.8555 884.53 85.4289 912.412 92.2964C947.601 100.961 982.932 109.501 1018.89 117.204C1079.88 130.267 1152.29 145.389 1219.16 141.789C1304.61 137.194 1370.31 98.4044 1456.89 95.1319" stroke="url(#paint20_linear_465_2979)" stroke-miterlimit="10"/>
<path d="M-2.53369 90.7612C61.6417 92.0615 120.8 113.374 185.918 105.032C244.793 97.4921 290.431 73.5462 347.837 64.0126C407.927 54.0365 480.201 63.8815 539.207 72.1694C599.339 80.6158 656.035 92.8482 711.798 107.495C736.73 114.052 755.865 115.417 780.858 107.922C799.983 102.185 815.561 93.5366 834.686 87.7837C862.051 79.5559 884.571 81.0856 912.189 88.1497C947.226 97.1096 982.597 105.714 1018.71 113.341C1079.41 126.164 1152.76 141.117 1219.11 137.38C1304.44 132.583 1370.56 94.449 1456.92 90.7776" stroke="url(#paint21_linear_465_2979)" stroke-miterlimit="10"/>
<path d="M-2.51355 86.4616C61.8038 87.6963 120.79 109.151 186.06 100.71C244.844 93.105 290.715 69.3612 348.161 59.8878C408.252 49.9772 480.363 60.2538 539.278 68.5964C599.217 77.0864 655.67 89.297 711.818 103.25C764.966 116.455 791.308 96.1481 835.081 83.484C862.446 75.5676 885.108 77.0099 912.473 84.1014C947.358 93.1432 982.668 101.726 1018.77 109.266C1079.11 121.864 1153.41 136.888 1219.29 132.835C1304.25 127.601 1371.19 91.018 1456.97 86.5435" stroke="url(#paint22_linear_465_2979)" stroke-miterlimit="10"/>
<path d="M-2.49329 82.2275C62.0166 83.4185 120.861 105.032 186.334 96.5196C245.117 88.8709 291.171 65.3785 348.647 55.9924C408.738 46.1584 480.636 56.8283 539.461 65.1982C599.166 73.6937 655.406 85.8497 711.879 99.0984C764.581 111.467 791.865 91.5207 835.669 79.4303C863.034 71.858 885.898 73.2567 913.02 80.359C947.743 89.4501 982.952 97.9674 1019.04 105.376C1079.14 117.717 1154.18 132.583 1219.52 128.256C1304.05 122.662 1371.81 87.669 1456.96 82.4843" stroke="url(#paint23_linear_465_2979)" stroke-miterlimit="10"/>
<path d="M-2.4729 78.0698C62.2599 79.228 121.013 101.016 186.729 92.4658C245.442 84.828 291.769 61.6032 349.286 52.3155C409.377 42.6454 481.042 53.583 539.755 61.9584C599.177 70.4266 655.295 82.4897 711.97 95.0062C764.298 106.55 792.514 87.0461 836.429 75.5184C863.865 68.3232 886.902 69.7218 913.821 76.8187C948.351 85.9261 983.489 94.3452 1019.52 101.579C1079.47 113.625 1154.96 128.125 1219.85 123.574C1303.97 117.679 1372.5 84.3308 1457.01 78.5069" stroke="url(#paint24_linear_465_2979)" stroke-miterlimit="10"/>
<path d="M-2.45276 73.9832C62.5537 75.1305 121.195 97.0877 187.246 88.5321C245.908 80.938 292.519 57.9755 350.086 48.8736C410.157 39.3728 481.457 50.5563 540.15 58.9043C599.247 67.3179 655.193 79.2553 712.102 91.0179C764.034 101.753 793.243 82.7628 837.361 71.8579C864.888 65.0506 888.108 66.4984 914.854 73.5734C949.115 82.7271 984.271 90.8722 1020.17 97.9728C1080.07 109.686 1155.78 123.651 1220.29 118.892C1303.86 112.757 1373.23 81.091 1457 74.7153" stroke="url(#paint25_linear_465_2979)" stroke-miterlimit="10"/>
<path d="M-2.42224 69.9731C62.8782 71.1204 121.5 93.2689 187.874 84.7242C246.486 77.1902 293.411 54.5336 351.049 45.6174C411.1 36.3297 482.096 47.688 540.677 55.9978C599.46 64.324 655.254 76.0975 712.294 87.0953C763.842 97.0386 794.105 78.6107 838.487 68.3669C866.145 61.9802 889.537 63.5099 916.131 70.5522C950.186 79.6452 985.214 87.6377 1021.03 94.4872C1080.96 105.835 1156.66 119.04 1220.82 114.155C1303.86 107.834 1374.02 77.9004 1457.06 71.0275" stroke="url(#paint26_linear_465_2979)" stroke-miterlimit="10"/>
<path d="M-2.4021 66.0503C63.2328 67.2031 121.844 89.5428 188.594 81.0636C247.164 73.6225 294.424 51.2938 352.083 42.5907C412.103 33.5324 482.724 45.0273 541.254 53.2661C599.602 61.4611 655.375 73.0489 712.477 83.2654C763.659 92.4274 795.037 74.6278 839.723 65.0779C867.533 59.1337 891.108 60.7782 917.591 67.8095C951.412 76.8157 986.282 84.6283 1021.98 91.1982C1082.01 102.125 1157.48 114.45 1221.37 109.451C1303.83 103.005 1374.75 74.8354 1457.04 67.5418" stroke="url(#paint27_linear_465_2979)" stroke-miterlimit="10"/>
<path d="M-2.38171 62.2043C63.618 63.3844 122.28 85.9371 189.415 77.5017C247.945 70.1917 295.55 48.2181 353.269 39.7499C413.248 30.9539 483.485 42.5307 541.883 50.6766C599.825 58.7624 655.538 70.0879 712.659 79.5177C763.487 87.9039 796.041 70.7763 841.061 61.9584C869.044 56.4951 892.8 58.2652 919.202 65.2364C952.8 74.1358 987.525 81.7398 1023.12 87.9914C1083.34 98.4974 1158.38 109.779 1222.04 104.693C1303.9 98.1368 1375.56 71.7979 1457.07 64.1274" stroke="url(#paint28_linear_465_2979)" stroke-miterlimit="10"/>
<path d="M-2.36157 58.4455C64.0334 59.6583 122.685 82.4296 190.317 74.1089C248.806 66.9082 296.786 45.3061 354.566 37.1001C414.495 28.5937 484.295 40.2088 542.613 48.2508C600.15 56.1891 655.811 67.2306 712.882 75.8627C763.365 83.5114 797.166 67.083 842.54 59.0246C870.716 54.0256 894.655 55.987 920.996 62.8489C954.359 71.6133 988.919 78.985 1024.37 84.8991C1084.83 94.9243 1159.26 105.042 1222.74 99.896C1303.99 93.34 1376.33 68.8095 1457.07 60.822" stroke="url(#paint29_linear_465_2979)" stroke-miterlimit="10"/>
<path d="M-2.34119 54.7795C64.4694 56.036 123.182 79.0258 191.239 70.8199C249.759 63.7885 298.114 42.5579 355.965 34.636C415.833 26.441 485.147 38.0506 543.464 45.9725C600.575 53.7414 656.197 64.466 713.207 72.295C763.345 79.1843 798.463 63.5208 844.213 56.26C872.591 51.7582 896.702 53.9108 923.023 60.74C956.143 69.3505 990.531 76.4646 1025.83 82.0088C1086.52 91.5206 1160.2 100.393 1223.54 95.1865C1304.15 88.5922 1377.14 65.9739 1457.11 57.7133" stroke="url(#paint30_linear_465_2979)" stroke-miterlimit="10"/>
<path d="M-2.32092 51.2228C64.9052 52.5176 123.689 75.726 192.344 67.6566C250.773 60.7837 299.533 39.9683 357.445 32.3469C417.242 24.4742 486.079 36.0565 544.265 43.8199C600.96 51.4031 656.541 61.7725 713.43 68.8039C763.254 74.9666 799.76 60.0625 845.865 53.6376C874.446 49.6439 898.75 51.9986 925.081 58.7786C957.95 67.2169 992.154 74.0534 1027.28 79.2061C1088.37 88.166 1161.14 95.6508 1224.37 90.4552C1304.36 83.8992 1377.92 63.1821 1457.13 54.6866" stroke="url(#paint31_linear_465_2979)" stroke-miterlimit="10"/>
<path d="M-2.30066 47.7262C65.4119 49.0975 124.307 72.5298 193.449 64.6134C251.867 57.9317 301.053 37.5316 359.005 30.227C418.752 22.704 487.072 34.2208 545.177 41.8531C601.447 49.245 656.987 59.2211 713.723 65.4548C763.254 70.9182 801.199 56.8172 847.649 51.2501C876.442 47.7808 900.929 50.3868 927.3 57.074C959.92 65.3231 993.934 71.8637 1028.87 76.6055C1090.33 84.9754 1162.09 91.0233 1225.24 85.8222C1304.6 79.2935 1378.69 60.5542 1457.15 51.8619" stroke="url(#paint32_linear_465_2979)" stroke-miterlimit="10"/>
<path d="M-2.2804 44.3445C65.9187 45.7868 124.915 69.4432 194.634 61.7016C253.002 55.2166 302.583 35.248 360.637 28.2767C420.302 21.1088 488.096 32.5436 546.109 40.0066C601.974 47.1909 657.443 56.7463 713.997 62.1824C763.274 66.9191 802.689 53.6704 849.493 48.9337C878.49 45.9999 903.148 48.8627 929.611 55.4897C961.976 63.5337 995.793 69.7584 1030.53 74.0652C1092.35 81.8013 1163.01 86.3468 1226.13 81.1675C1304.87 74.7153 1379.43 57.9537 1457.17 49.0867" stroke="url(#paint33_linear_465_2979)" stroke-miterlimit="10"/>
<path d="M-2.26013 41.0665C66.4153 42.5853 125.564 66.4657 195.82 58.9099C254.198 52.6325 304.195 33.1064 362.319 26.4794C421.904 19.6884 489.16 31.0085 547.133 38.2966C602.602 45.2733 657.991 54.3698 714.362 59.0137C763.426 63.0511 804.341 50.6657 851.48 46.8031C880.689 44.4046 905.52 47.5406 932.084 54.0693C964.198 61.9052 997.816 67.8085 1032.33 71.6723C1094.57 78.7364 1164.03 81.7303 1227.13 76.5893C1305.17 70.219 1380.17 55.4789 1457.19 46.4643" stroke="url(#paint34_linear_465_2979)" stroke-miterlimit="10"/>
<path d="M-2.23987 37.8924C66.9321 39.4931 126.233 63.5702 197.067 56.2438C255.445 50.1849 305.857 31.1014 364.053 24.8349C423.556 18.4428 490.265 29.6208 548.167 36.7232C603.261 43.4814 658.548 52.0916 714.676 55.9488C763.568 59.3087 805.973 47.8029 853.415 44.8144C882.807 42.9624 907.831 46.3824 934.496 52.8292C966.36 60.4422 999.776 66.0075 1034.05 69.4105C1096.69 75.7644 1164.92 77.1794 1228.02 72.0766C1305.49 65.8156 1380.78 53.1133 1457.14 43.9676" stroke="url(#paint35_linear_465_2979)" stroke-miterlimit="10"/>
<path d="M-2.2196 34.8328C67.4592 36.5155 126.932 60.8384 198.334 53.7032C256.702 47.8629 307.56 29.2383 365.826 23.3597C425.228 17.35 491.38 28.4024 549.271 35.3081C604.001 41.8641 659.166 49.9444 715.061 53.0203C763.862 55.7083 807.716 45.0984 855.523 42.9896C885.128 41.6838 910.253 45.4044 937.172 51.7637C968.79 59.1499 1002 64.3699 1036.03 67.3015C1178.93 80.0257 1318.97 58.5601 1457.28 41.6237" stroke="url(#paint36_linear_465_2979)" stroke-miterlimit="10"/>
<path d="M-2.19934 31.8717C67.9963 33.6473 127.641 58.1833 199.631 51.2721C257.999 45.6667 309.293 27.5065 367.63 21.9721C426.931 16.3448 492.525 27.2606 550.295 33.9642C604.71 40.2962 659.714 47.852 715.355 50.1303C764.146 52.1462 809.378 42.4816 857.54 41.225C887.317 40.4601 912.655 44.503 939.726 50.7695C970.983 58.0521 1004.17 62.696 1037.87 65.2638C1177.14 75.8791 1322.4 56.1727 1457.25 39.3511" stroke="url(#paint37_linear_465_2979)" stroke-miterlimit="10"/>
<path d="M-2.17908 29.0308C68.5335 30.8992 128.361 55.6482 200.938 48.9666C259.316 43.5742 311.036 25.9002 369.444 20.7374C428.644 15.5089 493.67 26.2772 551.379 32.7568C605.501 38.8484 660.311 45.8688 715.7 47.404C764.581 48.7589 811.091 40.0066 859.618 39.6406C889.567 39.4166 915.067 43.7764 942.351 49.9663C973.405 57.0086 1006.37 61.2537 1039.79 63.3625C1103.45 67.3781 1168 63.958 1231.13 59.0465C1306.88 53.1515 1382.74 46.6829 1457.27 37.193" stroke="url(#paint38_linear_465_2979)" stroke-miterlimit="10"/>
<path d="M-2.15881 26.3046C68.4625 28.2331 128.209 53.0259 200.715 46.9178C258.86 42.0008 310.681 25.0152 368.634 19.8633C427.214 14.6567 490.934 24.9879 548.136 31.2271C603.433 37.2368 659.45 43.9512 716.054 44.7926C766.304 45.5411 815.267 37.2695 865.405 38.2366C895.669 38.8211 920.895 44.1534 948.635 50.0757C977.449 56.2274 1007.87 59.7513 1038.64 61.4176C1104.14 64.9633 1169.09 59.7349 1233.81 54.8015C1308.5 49.1086 1383.87 44.727 1457.33 35.2098" stroke="url(#paint39_linear_465_2979)" stroke-miterlimit="10"/>
<path d="M-2.14868 23.6983C68.9591 25.7198 128.949 50.7201 201.992 44.847C260.148 40.1704 312.384 23.6328 370.428 18.8578C428.887 14.0719 492.099 24.2556 549.221 30.2926C604.254 36.1165 660.058 42.312 716.369 42.312C766.912 42.312 816.959 35.1386 867.513 36.9688C897.817 38.0615 923.256 43.6997 951.209 49.4963C979.83 55.4295 1010.05 58.5819 1040.56 59.8275C1106.27 62.51 1170.1 55.6098 1234.8 50.813C1309.01 45.3114 1384.36 42.9676 1457.3 33.3302" stroke="url(#paint40_linear_465_2979)" stroke-miterlimit="10"/>
<path d="M-2.12842 21.2181C69.5166 23.3325 129.628 48.535 203.29 42.8913C261.465 38.4332 314.107 22.36 372.232 17.9565C430.569 13.5257 493.285 23.6384 550.376 29.4787C605.106 35.0896 660.697 40.7278 716.713 39.9302C767.622 39.2035 818.652 33.1064 869.631 35.7889C899.976 37.3897 925.618 43.3284 953.753 48.9993C982.131 54.7195 1012.21 57.5003 1042.43 58.3253C1108.31 60.1337 1171.09 51.5944 1235.77 46.9287C1309.51 41.6074 1384.76 41.3124 1457.27 31.5548" stroke="url(#paint41_linear_465_2979)" stroke-miterlimit="10"/>
<path d="M-2.10815 18.8634C70.0334 21.0487 130.398 46.4643 204.577 41.0556C262.762 36.8105 315.809 21.1744 374.025 17.1643C432.241 13.1542 494.451 23.1303 551.39 28.7685C605.987 34.1772 661.315 39.2854 717.027 37.6847C768.382 36.2096 820.284 31.2051 871.689 34.729C902.094 36.8105 927.918 43.0716 956.317 48.6114C984.716 54.1513 1014.41 56.5333 1044.35 56.9485C1110.23 57.8718 1172.17 47.7318 1236.79 43.1972C1310.1 38.0507 1385.28 39.799 1457.31 29.8994" stroke="url(#paint42_linear_465_2979)" stroke-miterlimit="10"/>
<path d="M-2.09802 16.6342C70.5402 18.9289 131.118 44.4974 205.823 39.34C264.039 35.3026 317.472 20.1417 375.769 16.4703C433.822 12.8154 495.647 22.7259 552.484 28.1729C606.92 33.3849 661.943 37.9577 717.382 35.5703C769.243 33.3357 821.915 29.4185 873.777 33.7673C904.091 36.3133 930.219 42.9021 958.82 48.3163C986.894 53.6267 1016.59 55.67 1046.2 55.6864C1112.08 55.7301 1173.24 44.0385 1237.76 39.6241C1310.73 34.6306 1385.73 38.4167 1457.31 28.3586" stroke="url(#paint43_linear_465_2979)" stroke-miterlimit="10"/>
<path d="M-2.08777 14.5417C71.0369 16.9128 131.797 42.6944 207.04 37.7337C265.286 33.9094 319.103 19.1583 377.471 15.8803C435.465 12.6023 496.67 22.4363 553.518 27.6921C607.842 32.6965 662.592 36.7558 717.707 33.5925C770.125 30.5876 823.476 27.7576 875.814 32.915C906.118 35.8926 932.469 42.8146 961.283 48.1032C989.226 53.2278 1018.67 54.9051 1048.01 54.5335C1113.79 53.7086 1174.3 40.52 1238.73 36.2094C1311.29 31.358 1386.1 37.1819 1457.35 26.9217" stroke="url(#paint44_linear_465_2979)" stroke-miterlimit="10"/>
<path d="M-2.06763 12.5806C71.5132 15.0336 132.486 40.99 208.225 36.2478C266.502 32.5929 320.725 18.3171 379.123 15.3505C436.995 12.4112 497.704 22.2289 554.521 27.2879C608.744 32.1012 663.22 35.6523 718.021 31.7296C771.027 27.9381 825.037 26.1789 877.74 32.1285C908.013 35.5431 934.587 42.793 963.655 47.9722C991.425 52.8892 1020.72 54.2442 1049.8 53.4957C1115.41 51.8184 1175.41 37.1985 1239.72 32.9808C1311.94 28.244 1386.52 36.0894 1457.43 25.6271" stroke="url(#paint45_linear_465_2979)" stroke-miterlimit="10"/>
<path d="M-2.05737 10.7559C71.9288 13.2854 133.125 39.4276 209.351 34.8766C267.658 31.391 322.185 17.5468 380.715 14.908C438.485 12.3075 498.748 22.1087 555.474 26.993C609.626 31.6641 663.828 34.6799 718.304 30.0142C771.929 25.425 826.426 24.7147 879.584 31.4347C909.797 35.259 936.624 42.8367 965.885 47.8958C993.513 52.6708 1022.64 53.6596 1051.42 52.556C1116.8 50.0484 1176.38 34.0789 1240.58 29.9159C1312.54 25.2665 1386.82 35.1224 1457.41 24.4088" stroke="url(#paint46_linear_465_2979)" stroke-miterlimit="10"/>
<path d="M-2.04736 9.07837C72.405 11.668 133.763 37.985 210.415 33.6143C268.772 30.2926 323.634 16.8582 382.225 14.5417C439.904 12.2635 499.701 22.0648 556.376 26.796C610.477 31.3142 664.416 33.8274 718.588 28.4351C772.76 23.0427 827.794 23.3596 881.368 30.8225C911.51 35.0239 938.601 42.8419 968.023 47.8792C995.388 52.5722 1024.56 53.1622 1052.99 51.7035C1118.09 48.4255 1177.34 31.1667 1241.41 27.0583C1313.05 22.4636 1387.12 34.3136 1457.41 23.3104" stroke="url(#paint47_linear_465_2979)" stroke-miterlimit="10"/>
<path d="M-1.98645 7.51587C72.8713 10.1601 134.361 36.652 211.469 32.4507C269.806 29.2874 324.992 16.2572 383.654 14.2413C441.201 12.2635 500.613 22.0976 557.227 26.6923C611.298 31.063 664.984 33.1008 718.842 26.9982C773.713 20.7864 829.071 22.0812 883.03 30.2762C913.111 34.8327 940.435 42.9458 970.03 47.912C997.283 52.4848 1026.3 52.747 1054.43 50.9933C1085.13 49.0757 1115.06 44.6831 1144.54 39.8098C1176.34 34.5595 1209.07 26.5502 1242.2 24.4304C1313.6 19.8576 1387.41 33.6744 1457.42 22.3434" stroke="url(#paint48_linear_465_2979)" stroke-miterlimit="10"/>
<path d="M-1.98645 6.15015C73.2362 8.83812 134.837 35.4993 212.391 31.44C270.779 28.3806 326.259 15.711 384.992 13.9955C442.448 12.2964 501.434 22.1906 557.998 26.6705C612.068 30.9429 665.541 32.4999 719.085 25.709C774.554 18.6722 830.277 20.9067 884.631 29.812C914.581 34.729 942.138 43.0879 971.884 47.9831C999.026 52.4467 1027.91 52.4139 1055.77 50.3597C1086.41 48.1088 1116.17 43.3338 1145.47 38.1491C1177.04 32.5655 1209.82 24.141 1242.94 22.0048C1314.12 17.4211 1387.7 33.1774 1457.43 21.4585" stroke="url(#paint49_linear_465_2979)" stroke-miterlimit="10"/>
<path d="M-1.98645 4.90991C73.5808 7.64159 135.344 34.4612 213.232 30.5221C271.661 27.561 327.404 15.2739 386.188 13.8043C443.562 12.3674 502.153 22.3763 558.677 26.7415C612.758 30.91 666.038 32.03 719.267 24.5562C775.375 16.7053 831.351 19.8194 886.091 29.4076C915.929 34.6306 943.689 43.2463 973.587 48.0869C1000.62 52.4575 1029.33 52.1516 1056.99 49.8297C1087.56 47.2619 1117.16 42.1263 1146.31 36.6575C1177.67 30.7735 1210.48 21.9775 1243.61 19.8085C1314.55 15.1646 1387.96 32.8386 1457.46 20.699" stroke="url(#paint50_linear_465_2979)" stroke-miterlimit="10"/>
<path d="M-1.98645 3.82275C73.895 6.55443 135.76 33.5598 213.982 29.7136C272.482 26.8344 328.509 14.8861 387.353 13.6568C444.667 12.4549 502.893 22.6113 559.356 26.8891C613.457 30.9811 666.585 31.6859 719.49 23.5728C776.176 14.8806 832.294 18.8142 887.418 29.0362C917.155 34.5596 945.097 43.3993 975.117 48.1962C1002.06 52.4958 1030.67 51.9495 1058.06 49.3817C1088.59 46.5189 1118.03 41.0556 1147.05 35.3245C1178.23 29.1564 1211.07 20.0599 1244.23 17.8417C1315.04 13.0995 1388.26 32.6474 1457.46 20.0271" stroke="url(#paint51_linear_465_2979)" stroke-miterlimit="10"/>
<path d="M-1.98645 2.89404C74.1889 5.62572 136.114 32.8005 214.641 29.0144C273.151 26.1953 329.431 14.5638 388.326 13.5257C445.579 12.5369 503.42 22.8736 559.883 27.0913C614.014 31.1342 667.041 31.462 719.642 22.7206C776.916 13.1979 833.064 17.8746 888.594 28.7303C918.199 34.5214 946.304 43.5633 976.435 48.3274C1003.29 52.5778 1031.76 51.8239 1058.97 49.0376C1089.45 45.9071 1118.76 40.1487 1147.66 34.1772C1178.7 27.7578 1211.51 18.4264 1244.76 16.1482C1315.41 11.2584 1388.55 32.6475 1457.47 19.4699" stroke="url(#paint52_linear_465_2979)" stroke-miterlimit="10"/>
<path d="M-1.98645 2.11816C73.8139 4.84984 135.537 32.0246 213.607 28.5007C275.3 25.7199 334.934 13.1596 397.184 13.4164C450.404 13.6349 503.805 23.0592 556.376 27.113C612.23 31.4182 665.693 31.298 719.784 22.0813C779.764 11.8867 835.963 17.2462 893.773 29.3694C919.689 34.8 944.378 42.2083 970.486 47.2947C998.114 52.6761 1028.45 52.1516 1056.88 49.1632C1089.14 45.7759 1120.02 39.3291 1150.44 32.7731C1181.11 26.1406 1213.72 16.8037 1246.79 14.6183C1316.72 10.0236 1389.45 32.7075 1457.46 19.0273" stroke="url(#paint53_linear_465_2979)" stroke-miterlimit="10"/>
<path d="M-1.98645 1.50635C74.0268 4.19978 135.749 31.5548 214.033 28.0255C275.746 25.2392 335.654 12.9739 397.884 13.3837C451.062 13.7388 504.191 23.4254 556.731 27.4846C612.626 31.8007 666.078 31.3745 719.906 21.5569C780.493 10.499 836.399 16.4869 894.686 29.2056C920.479 34.8329 945.239 42.3067 971.418 47.3986C998.986 52.7855 1029.19 52.1517 1057.46 48.9939C1089.69 45.3935 1120.45 38.6681 1150.79 31.9373C1181.42 25.1409 1214.01 15.7002 1247.16 13.4055C1316.96 8.60872 1389.77 32.9917 1457.47 18.6504" stroke="url(#paint54_linear_465_2979)" stroke-miterlimit="10"/>
<path d="M-1.98645 1.06909C74.1788 3.71882 135.851 31.2378 214.357 27.6538C276.08 24.8347 336.12 12.8317 398.431 13.3726C451.589 13.8315 504.464 23.8295 556.984 27.9215C612.91 32.2922 666.443 31.5984 719.926 21.1907C781.102 9.29145 836.561 15.7819 895.344 29.036C921.077 34.8327 945.898 42.383 972.097 47.535C999.645 52.9492 1029.58 52.2663 1057.83 48.9609C1123.09 41.3122 1181.56 17.3663 1247.45 12.5367C1317.13 7.42844 1390.13 33.4559 1457.47 18.3934" stroke="url(#paint55_linear_465_2979)" stroke-miterlimit="10"/>
<path d="M-1.98645 0.791016C74.3004 3.38611 135.952 31.069 214.55 27.3976C276.283 24.5075 336.526 12.7394 398.806 13.3677C451.974 13.914 504.616 24.2616 557.116 28.4247C613.062 32.8609 666.778 31.965 719.956 20.9945C781.669 8.25943 836.51 15.1269 895.851 28.9164C921.371 34.8332 946.253 42.6731 972.513 47.623C1000.4 52.8732 1029.44 52.4471 1057.99 48.9943C1123.36 41.0833 1181.51 17.1155 1247.63 11.9363C1317.22 6.47291 1390.53 34.0902 1457.43 18.2301" stroke="url(#paint56_linear_465_2979)" stroke-miterlimit="10"/>
<path d="M-1.98645 0.686768C74.3815 3.20538 135.922 31.0521 214.6 27.2442C276.333 24.2557 336.657 12.6843 399.059 13.3618C452.238 13.9409 504.677 24.7256 557.167 28.987C613.112 33.527 667.112 32.4835 719.977 20.9613C782.166 7.39578 836.236 14.5091 896.145 28.8231C950.874 41.8914 995.966 56.7682 1057.94 49.1085C1123.49 41.0064 1181.36 17.2408 1247.71 11.6463C1317.22 5.78408 1390.92 34.8929 1457.51 18.2023" stroke="url(#paint57_linear_465_2979)" stroke-miterlimit="10"/>
<path d="M2916.93 207.814C2859.79 207.71 2798.5 209.726 2742.17 204.476C2653.67 196.226 2570.02 177.017 2482.17 167.177C2449.44 163.511 2418.61 161.239 2386.81 168.046C2361.02 173.602 2339.04 183.136 2318.02 192.664C2280.81 209.507 2240.83 231.896 2189.3 233.781C2156.37 234.989 2123.26 225.728 2094.82 217.888C2063.27 209.191 2032.94 199.28 2001.4 190.571C1972.41 182.573 1937.95 172.761 1904.3 174.81C1874.57 176.618 1847.82 186.774 1825.14 196.554C1780.87 215.676 1732.44 247.287 1669.7 244.085C1594.52 240.261 1533.46 210.933 1457.48 207.792" stroke="url(#paint58_linear_465_2979)" stroke-miterlimit="10"/>
<path d="M2916.92 201.028C2860.8 200.924 2800.16 202.946 2744.92 197.597C2654.86 188.883 2570.23 168.363 2480.92 157.911C2448.33 154.087 2417.27 151.645 2385.8 158.938C2360.04 164.91 2338.71 175.263 2318.45 185.447C2282.8 203.361 2244.32 227.607 2192.17 229.7C2158.34 231.044 2124.26 221.013 2095.38 212.72C2062.77 203.35 2031.53 192.686 1998.92 183.305C1969.53 174.842 1934.06 164.26 1899.51 166.418C1869.46 168.297 1843.17 179.087 1821.1 189.429C1778.2 209.529 1731.25 243.407 1667.52 239.993C1592.33 235.966 1533.6 204.284 1457.47 201.05" stroke="url(#paint59_linear_465_2979)" stroke-miterlimit="10"/>
<path d="M2916.9 194.363C2861.57 194.275 2801.31 196.335 2746.87 191.03C2656.05 182.18 2571.19 160.583 2481.19 149.847C2449.05 146.023 2417.41 143.532 2386.39 150.874C2360.41 157.021 2339.38 167.931 2319.5 178.546C2284.41 197.308 2247.07 222.526 2193.82 224.559C2159.24 225.881 2125.07 215.746 2095.78 207.076C2062.49 197.242 2030.67 186.031 1997.38 176.186C1967.62 167.379 1931.99 156.627 1896.73 158.769C1866.33 160.616 1840.48 171.602 1818.69 182.387C1776.12 203.448 1731.42 238.184 1666.19 234.803C1590.81 230.896 1533.85 197.264 1457.4 194.374" stroke="url(#paint60_linear_465_2979)" stroke-miterlimit="10"/>
<path d="M2916.89 187.807C2861.76 187.621 2801.69 189.938 2747.49 184.529C2657.29 175.509 2573.51 153.268 2484.22 142.281C2452.17 138.342 2420.55 135.982 2389.55 143.237C2363.2 149.416 2341.75 160.457 2321.57 171.204C2285.84 190.238 2248.1 215.779 2194.16 218.161C2159.33 219.697 2125.37 209.688 2095.95 200.881C2062.6 190.894 2030.84 179.464 1997.5 169.472C1967.6 160.501 1932.15 149.897 1896.63 152.191C1866.02 154.169 1840.33 165.178 1818.5 176.083C1775.76 197.439 1731.9 231.716 1666.16 228.531C1590.57 224.881 1534.2 190.331 1457.44 187.807" stroke="url(#paint61_linear_465_2979)" stroke-miterlimit="10"/>
<path d="M2916.88 181.398C2861.52 181.06 2801.63 183.982 2747.24 178.197C2658.64 168.772 2576.74 146.165 2489.09 134.79C2456.65 130.578 2425.86 128.387 2394.41 135.692C2367.59 141.915 2345.38 152.841 2324.46 163.495C2287.54 182.322 2248.22 208.12 2194.27 211.37C2159.66 213.457 2125.57 203.421 2096.4 194.62C2063.46 184.682 2032.18 173.242 1999.25 163.293C1969.4 154.273 1933.96 143.75 1898.48 146.477C1867.97 148.82 1841.9 159.987 1819.76 170.772C1776.8 191.697 1731.68 225.329 1666.72 222.237C1590.95 218.626 1534.4 183.879 1457.46 181.398" stroke="url(#paint62_linear_465_2979)" stroke-miterlimit="10"/>
<path d="M2916.86 175.099C2861.19 174.695 2801.46 178.432 2746.73 172.307C2659.93 162.593 2580.18 139.691 2494.37 128.054C2461.66 123.607 2431.59 121.624 2399.79 128.835C2372.54 135.014 2349.44 145.657 2327.75 156.229C2289.59 174.804 2248.45 200.509 2194.55 204.546C2160.25 207.12 2126.43 197.291 2097.53 188.528C2065.15 178.694 2034.52 167.325 2002.16 157.496C1972.4 148.46 1937.29 138.238 1901.98 141.352C1871.43 144.051 1844.9 155.267 1822.27 165.937C1778.74 186.425 1732.14 219.216 1667.68 216.167C1591.57 212.572 1534.71 177.601 1457.42 175.132" stroke="url(#paint63_linear_465_2979)" stroke-miterlimit="10"/>
<path d="M2916.84 168.92C2860.78 168.532 2801.09 173.258 2745.97 166.822C2661.16 156.928 2583.73 133.791 2499.93 121.951C2467.09 117.313 2437.59 115.57 2405.52 122.574C2377.79 128.628 2353.83 138.964 2331.29 149.345C2291.54 167.587 2248.97 192.921 2194.92 197.701C2161.02 200.695 2127.8 191.292 2099.18 182.589C2067.51 172.952 2037.66 161.681 2006.01 152.033C1976.36 142.991 1941.93 133.277 1906.84 136.735C1876.15 139.768 1849.07 150.94 1825.75 161.463C1781.35 181.497 1733.09 213.282 1668.97 210.25C1592.4 206.628 1535.1 171.422 1457.35 168.936" stroke="url(#paint64_linear_465_2979)" stroke-miterlimit="10"/>
<path d="M2916.83 162.861C2860.31 162.555 2800.64 168.418 2745.03 161.703C2662.35 151.721 2587.38 128.377 2505.74 116.472C2472.92 111.675 2443.82 110.184 2411.59 116.882C2383.37 122.749 2358.57 132.725 2335.1 142.789C2293.55 160.616 2249.68 185.343 2195.42 190.812C2129.95 197.417 2063.79 163.042 2010.73 146.837C1981.2 137.812 1947.7 128.77 1912.91 132.556C1881.97 135.927 1854.33 146.99 1830.21 157.354C1784.69 176.919 1734.62 207.568 1670.67 204.519C1593.53 200.848 1535.68 165.385 1457.37 162.861" stroke="url(#paint65_linear_465_2979)" stroke-miterlimit="10"/>
<path d="M2916.81 156.928C2859.8 156.758 2800.11 163.877 2743.92 156.928C2663.46 146.941 2591.08 123.487 2511.71 111.544C2479 106.627 2450.19 105.403 2417.87 111.713C2389.12 117.335 2363.46 126.868 2339.08 136.615C2295.72 153.934 2250.54 177.836 2196.01 183.982C2131.53 191.238 2068.22 157.857 2016.14 141.915C1987.35 133.113 1953.78 124.241 1919.94 128.775C1888.52 132.982 1860.84 143.182 1835.36 153.562C1788.53 172.63 1736.54 202.039 1672.58 198.957C1594.79 195.215 1536.32 159.485 1457.35 156.89" stroke="url(#paint66_linear_465_2979)" stroke-miterlimit="10"/>
<path d="M2916.79 151.11C2859.24 151.11 2799.49 159.594 2742.68 152.388C2664.5 142.472 2594.78 118.919 2517.75 107.042C2383.97 86.3961 2314.18 162.615 2196.66 177.203C2133.31 185.075 2073.2 152.896 2022.07 137.276C1993.41 128.535 1961.14 120.575 1927.72 125.366C1895.91 129.928 1867.58 139.904 1841.08 150.088C1792.79 168.663 1738.78 196.734 1674.69 193.604C1596.17 189.779 1537.02 153.77 1457.32 151.11" stroke="url(#paint67_linear_465_2979)" stroke-miterlimit="10"/>
<path d="M2916.77 145.417C2858.66 145.646 2798.81 155.524 2741.32 148.105C2665.48 138.32 2598.41 114.712 2523.79 102.939C2392.77 82.2765 2312.98 154.841 2197.36 170.472C2135.11 178.896 2078.61 148.143 2028.41 132.824C1999.87 124.115 1969 117.204 1936.07 122.214C1903.83 127.131 1874.78 136.855 1847.21 146.826C1797.37 164.855 1741.3 191.577 1676.94 188.375C1597.65 184.436 1537.76 148.165 1457.29 145.417" stroke="url(#paint68_linear_465_2979)" stroke-miterlimit="10"/>
<path d="M2916.75 139.844C2858.06 140.309 2798.1 151.629 2739.88 144.024C2666.36 134.419 2602.04 110.784 2529.73 99.1694C2401.49 78.567 2311.82 147.165 2198.08 163.839C2136.94 172.799 2084.28 143.559 2034.96 128.54C2006.52 119.881 1977.19 114.079 1944.76 119.253C1912.08 124.492 1882.28 134.004 1853.62 143.729C1802.17 161.211 1744.04 186.539 1679.35 183.267C1599.29 179.208 1538.6 142.663 1457.33 139.822" stroke="url(#paint69_linear_465_2979)" stroke-miterlimit="10"/>
<path d="M2916.73 134.392C2857.48 135.096 2797.34 147.864 2738.35 140.101C2667.1 130.715 2605.44 107.069 2535.45 95.651C2409.94 75.1689 2310.69 139.647 2198.81 157.321C2138.78 166.806 2090.07 139.123 2041.59 124.394C2013.27 115.789 1985.37 111.129 1953.48 116.488C1920.34 122.061 1889.76 131.332 1860.02 140.817C1806.96 157.753 1746.78 181.683 1681.69 178.328C1600.79 174.154 1539.35 137.353 1457.27 134.392" stroke="url(#paint70_linear_465_2979)" stroke-miterlimit="10"/>
<path d="M2916.71 129.065C2856.91 130.004 2796.56 144.187 2736.9 136.293C2667.84 127.153 2608.78 103.513 2541.03 92.3182C2418 71.9945 2309.54 132.277 2199.48 150.94C2140.54 160.938 2095.79 134.812 2048.11 120.345C2019.91 111.795 1993.38 108.277 1962.09 113.789C1928.49 119.701 1897.15 128.759 1866.35 137.981C1811.73 154.338 1749.54 176.918 1684.01 173.493C1602.29 169.204 1540.09 132.102 1457.21 129.076" stroke="url(#paint71_linear_465_2979)" stroke-miterlimit="10"/>
<path d="M2916.69 123.853C2856.29 125.017 2795.8 140.56 2735.41 132.556C2668.43 123.678 2611.86 100.054 2546.22 89.1004C2425.55 68.9625 2308.42 125.06 2200.2 144.712C2142.24 155.234 2101.5 130.556 2054.47 116.379C2026.37 107.911 2001.22 105.452 1970.46 111.123C1936.43 117.373 1904.32 126.251 1872.52 135.206C1816.4 151 1752.3 172.253 1686.31 168.74C1603.82 164.342 1540.89 126.972 1457.25 123.853" stroke="url(#paint72_linear_465_2979)" stroke-miterlimit="10"/>
<path d="M2916.67 118.766C2855.7 120.121 2795.04 136.943 2733.97 128.857C2668.9 120.247 2614.68 96.6233 2551 85.9261C2489.23 75.5457 2423.51 87.2646 2365.81 99.7866C2310.17 111.866 2257.28 127.71 2200.8 138.664C2143.58 149.765 2107.08 126.251 2060.41 112.44C1998.44 94.1102 1934.96 117.357 1878.23 132.43C1820.76 147.684 1754.85 167.669 1688.42 164.079C1605.2 159.589 1541.59 121.957 1457.21 118.761" stroke="url(#paint73_linear_465_2979)" stroke-miterlimit="10"/>
<path d="M2916.65 113.795C2855.12 115.308 2794.45 133.293 2732.59 125.148C2669.26 116.8 2617.19 93.1924 2555.23 82.73C2494.02 72.3824 2426.57 83.6206 2368.6 95.0882C2311.83 106.321 2257.8 121.154 2201.34 132.824C2144.88 144.493 2111.9 122.132 2065.82 108.517C2005.26 90.6246 1939.14 115.619 1883.39 129.633C1824.71 144.384 1757.13 163.156 1690.34 159.518C1606.47 154.945 1542.23 117.062 1457.23 113.795" stroke="url(#paint74_linear_465_2979)" stroke-miterlimit="10"/>
<path d="M2916.62 108.949C2854.52 110.588 2793.9 129.579 2731.32 121.383C2669.5 113.292 2619.35 89.696 2559.03 79.4358C2498.29 69.1373 2429.3 79.9166 2371.06 90.4335C2313.29 100.874 2258.18 114.817 2201.81 127.202C2175.21 133.042 2155.72 133.283 2130.01 125.749C2109.11 119.624 2091.44 110.73 2070.57 104.562C2042.73 96.323 2020.55 96.5525 1991.39 102.677C1956.36 110.047 1922.22 118.521 1887.84 126.754C1828.18 141.002 1759.13 158.682 1692.03 155.01C1607.59 150.388 1542.8 112.254 1457.2 108.949" stroke="url(#paint75_linear_465_2979)" stroke-miterlimit="10"/>
<path d="M2916.6 104.217C2853.92 105.856 2793.48 125.754 2730.18 117.532C2669.58 109.659 2621.15 85.9753 2562.04 75.9774C2501.61 65.7554 2431.36 76.0866 2372.89 85.8114C2314.42 95.5362 2258.28 108.758 2202.09 121.87C2176.12 127.928 2157.14 128.786 2131.65 121.29C2111.44 115.346 2094.58 106.572 2074.42 100.584C2046.73 92.3565 2024.9 93.2306 1996.25 99.5572C1961.04 107.332 1926.38 115.789 1891.35 123.793C1830.93 137.593 1760.54 154.289 1693.34 150.607C1608.43 145.958 1543.21 107.594 1457.19 104.267" stroke="url(#paint76_linear_465_2979)" stroke-miterlimit="10"/>
<path d="M2916.58 99.6172C2853.31 101.212 2793.22 121.798 2729.21 113.554C2669.51 105.856 2622.59 81.9924 2564.3 72.2895C2503.95 62.2314 2432.94 72.0928 2374.1 81.1237C2314.79 90.2202 2258.17 102.89 2202.21 116.723C2176.77 123.006 2158 124.328 2132.71 116.832C2113.04 111.014 2096.86 102.294 2077.26 96.4211C2049.7 88.166 2027.89 89.5045 1999.67 96.0715C1964.41 104.267 1929.35 112.746 1893.78 120.58C1832.97 133.982 1761.4 149.815 1694.25 146.16C1609.01 141.516 1543.47 102.933 1457.09 99.6172" stroke="url(#paint77_linear_465_2979)" stroke-miterlimit="10"/>
<path d="M2916.56 95.1319C2852.71 96.5797 2793.14 117.663 2728.42 109.397C2669.34 101.852 2623.43 77.884 2565.84 68.2958C2505.69 58.287 2433.74 67.9353 2374.75 76.4035C2314.83 85.0083 2257.96 97.3336 2202.26 111.915C2177.24 118.471 2158.37 120.056 2133.2 112.511C2113.95 106.736 2098.27 98.0111 2079.04 92.1817C2051.58 83.8555 2029.47 85.4289 2001.59 92.2964C1966.4 100.961 1931.07 109.501 1895.11 117.204C1834.12 130.267 1761.71 145.389 1694.84 141.789C1609.39 137.194 1543.69 98.4044 1457.11 95.1319" stroke="url(#paint78_linear_465_2979)" stroke-miterlimit="10"/>
<path d="M2916.53 90.7612C2852.36 92.0615 2793.2 113.374 2728.08 105.032C2669.21 97.4921 2623.57 73.5462 2566.16 64.0126C2506.07 54.0365 2433.8 63.8815 2374.79 72.1694C2314.66 80.6158 2257.97 92.8482 2202.2 107.495C2177.27 114.052 2158.13 115.417 2133.14 107.922C2114.02 102.185 2098.44 93.5366 2079.31 87.7837C2051.95 79.5559 2029.43 81.0856 2001.81 88.1497C1966.77 97.1096 1931.4 105.714 1895.29 113.341C1834.59 126.164 1761.24 141.117 1694.89 137.38C1609.56 132.583 1543.44 94.449 1457.08 90.7776" stroke="url(#paint79_linear_465_2979)" stroke-miterlimit="10"/>
<path d="M2916.51 86.4616C2852.2 87.6963 2793.21 109.151 2727.94 100.71C2669.16 93.105 2623.29 69.3612 2565.84 59.8878C2505.75 49.9772 2433.64 60.2538 2374.72 68.5964C2314.78 77.0864 2258.33 89.297 2202.18 103.25C2149.03 116.455 2122.69 96.1481 2078.92 83.484C2051.55 75.5676 2028.89 77.0099 2001.53 84.1014C1966.64 93.1432 1931.33 101.726 1895.23 109.266C1834.89 121.864 1760.59 136.888 1694.71 132.835C1609.75 127.601 1542.81 91.018 1457.03 86.5435" stroke="url(#paint80_linear_465_2979)" stroke-miterlimit="10"/>
<path d="M2916.49 82.2275C2851.98 83.4185 2793.14 105.032 2727.67 96.5196C2668.88 88.8709 2622.83 65.3785 2565.35 55.9924C2505.26 46.1584 2433.36 56.8283 2374.54 65.1982C2314.83 73.6937 2258.59 85.8497 2202.12 99.0984C2149.42 111.467 2122.14 91.5207 2078.33 79.4303C2050.97 71.858 2028.1 73.2567 2000.98 80.359C1966.26 89.4501 1931.05 97.9674 1894.96 105.376C1834.86 117.717 1759.82 132.583 1694.48 128.256C1609.95 122.662 1542.19 87.669 1457.04 82.4843" stroke="url(#paint81_linear_465_2979)" stroke-miterlimit="10"/>
<path d="M2916.47 78.0698C2851.74 79.228 2792.99 101.016 2727.27 92.4658C2668.56 84.828 2622.23 61.6032 2564.71 52.3155C2504.62 42.6454 2432.96 53.583 2374.25 61.9584C2314.82 70.4266 2258.71 82.4897 2202.03 95.0062C2149.7 106.55 2121.49 87.0461 2077.57 75.5184C2050.14 68.3232 2027.1 69.7218 2000.18 76.8187C1965.65 85.9261 1930.51 94.3452 1894.48 101.579C1834.53 113.625 1759.04 128.125 1694.15 123.574C1610.03 117.679 1541.5 84.3308 1456.99 78.5069" stroke="url(#paint82_linear_465_2979)" stroke-miterlimit="10"/>
<path d="M2916.45 73.9832C2851.45 75.1305 2792.8 97.0877 2726.75 88.5321C2668.09 80.938 2621.48 57.9755 2563.91 48.8736C2503.84 39.3728 2432.54 50.5563 2373.85 58.9043C2314.75 67.3179 2258.81 79.2553 2201.9 91.0179C2149.97 101.753 2120.76 82.7628 2076.64 71.8579C2049.11 65.0506 2025.89 66.4984 1999.15 73.5734C1964.89 82.7271 1929.73 90.8722 1893.83 97.9728C1833.93 109.686 1758.22 123.651 1693.71 118.892C1610.14 112.757 1540.77 81.091 1457 74.7153" stroke="url(#paint83_linear_465_2979)" stroke-miterlimit="10"/>
<path d="M2916.42 69.9731C2851.12 71.1204 2792.5 93.2689 2726.13 84.7242C2667.51 77.1902 2620.59 54.5336 2562.95 45.6174C2502.9 36.3297 2431.9 47.688 2373.32 55.9978C2314.54 64.324 2258.75 76.0975 2201.71 87.0953C2150.16 97.0386 2119.9 78.6107 2075.51 68.3669C2047.85 61.9802 2024.46 63.5099 1997.87 70.5522C1963.81 79.6452 1928.79 87.6377 1892.97 94.4872C1833.04 105.835 1757.34 119.04 1693.18 114.155C1610.14 107.834 1539.98 77.9004 1456.94 71.0275" stroke="url(#paint84_linear_465_2979)" stroke-miterlimit="10"/>
<path d="M2916.4 66.0503C2850.77 67.2031 2792.16 89.5428 2725.41 81.0636C2666.84 73.6225 2619.58 51.2938 2561.92 42.5907C2501.9 33.5324 2431.28 45.0273 2372.75 53.2661C2314.4 61.4611 2258.62 73.0489 2201.52 83.2654C2150.34 92.4274 2118.96 74.6278 2074.28 65.0779C2046.47 59.1337 2022.89 60.7782 1996.41 67.8095C1962.59 76.8157 1927.72 84.6283 1892.02 91.1982C1831.99 102.125 1756.52 114.45 1692.63 109.451C1610.17 103.005 1539.25 74.8354 1456.96 67.5418" stroke="url(#paint85_linear_465_2979)" stroke-miterlimit="10"/>
<path d="M2916.38 62.2043C2850.38 63.3844 2791.72 85.9371 2724.59 77.5017C2666.05 70.1917 2618.45 48.2181 2560.73 39.7499C2500.75 30.9539 2430.52 42.5307 2372.12 50.6766C2314.17 58.7624 2258.46 70.0879 2201.34 79.5177C2150.51 87.9039 2117.96 70.7763 2072.94 61.9584C2044.96 56.4951 2021.2 58.2652 1994.8 65.2364C1961.2 74.1358 1926.47 81.7398 1890.88 87.9914C1830.66 98.4974 1755.62 109.779 1691.96 104.693C1610.1 98.1368 1538.44 71.7979 1456.93 64.1274" stroke="url(#paint86_linear_465_2979)" stroke-miterlimit="10"/>
<path d="M2916.36 58.4455C2849.97 59.6583 2791.31 82.4296 2723.68 74.1089C2665.19 66.9082 2617.21 45.3061 2559.43 37.1001C2499.51 28.5937 2429.7 40.2088 2371.39 48.2508C2313.85 56.1891 2258.19 67.2306 2201.12 75.8627C2150.63 83.5114 2116.83 67.083 2071.46 59.0246C2043.28 54.0256 2019.34 55.987 1993 62.8489C1959.64 71.6133 1925.08 78.985 1889.63 84.8991C1829.17 94.9243 1754.74 105.042 1691.26 99.896C1610.01 93.34 1537.67 68.8095 1456.93 60.822" stroke="url(#paint87_linear_465_2979)" stroke-miterlimit="10"/>
<path d="M2916.34 54.7795C2849.53 56.036 2790.82 79.0258 2722.76 70.8199C2664.24 63.7885 2615.89 42.5579 2558.04 34.636C2498.17 26.441 2428.85 38.0506 2370.54 45.9725C2313.42 53.7414 2257.8 64.466 2200.79 72.295C2150.66 79.1843 2115.54 63.5208 2069.79 56.26C2041.41 51.7582 2017.3 53.9108 1990.98 60.74C1957.86 69.3505 1923.47 76.4646 1888.17 82.0088C1827.48 91.5206 1753.8 100.393 1690.46 95.1865C1609.85 88.5922 1536.86 65.9739 1456.89 57.7133" stroke="url(#paint88_linear_465_2979)" stroke-miterlimit="10"/>
<path d="M2916.32 51.223C2849.09 52.5178 2790.31 75.7262 2721.66 67.6568C2663.23 60.7839 2614.47 39.9685 2556.56 32.3471C2496.76 24.4744 2427.92 36.0567 2369.74 43.8202C2313.04 51.4033 2257.46 61.7728 2200.57 68.8041C2150.75 74.9668 2114.24 60.0628 2068.14 53.6378C2039.55 49.6441 2015.25 51.9988 1988.92 58.7789C1956.05 67.2172 1921.85 74.0536 1886.72 79.2064C1825.63 88.1663 1752.86 95.6511 1689.63 90.4554C1609.64 83.8994 1536.08 63.1823 1456.87 54.6868" stroke="url(#paint89_linear_465_2979)" stroke-miterlimit="10"/>
<path d="M2916.3 47.7264C2848.59 49.0977 2789.69 72.5301 2720.55 64.6137C2662.13 57.932 2612.95 37.5318 2554.99 30.2273C2495.25 22.7042 2426.93 34.221 2368.82 41.8533C2312.55 49.2452 2257.01 59.2213 2200.28 65.455C2150.75 70.9184 2112.8 56.8175 2066.35 51.2503C2037.56 47.7811 2013.07 50.3871 1986.7 57.0742C1954.08 65.3233 1920.07 71.8639 1885.13 76.6058C1823.67 84.9756 1751.91 91.0236 1688.76 85.8225C1609.4 79.2937 1535.31 60.5544 1456.85 51.8622" stroke="url(#paint90_linear_465_2979)" stroke-miterlimit="10"/>
<path d="M2916.28 44.3445C2848.08 45.7868 2789.08 69.4432 2719.37 61.7016C2661 55.2166 2611.42 35.248 2553.36 28.2767C2493.7 21.1088 2425.9 32.5436 2367.89 40.0066C2312.03 47.1909 2256.56 56.7463 2200 62.1824C2150.73 66.9191 2111.31 53.6704 2064.51 48.9337C2035.51 45.9999 2010.85 48.8627 1984.39 55.4897C1952.02 63.5337 1918.21 69.7584 1883.47 74.0652C1821.65 81.8013 1750.99 86.3468 1687.87 81.1675C1609.13 74.7153 1534.57 57.9537 1456.83 49.0867" stroke="url(#paint91_linear_465_2979)" stroke-miterlimit="10"/>
<path d="M2916.26 41.0665C2847.58 42.5853 2788.44 66.4657 2718.18 58.9099C2659.8 52.6325 2609.81 33.1064 2551.68 26.4794C2492.1 19.6884 2424.84 31.0085 2366.87 38.2966C2311.4 45.2733 2256.01 54.3698 2199.64 59.0137C2150.57 63.0511 2109.66 50.6657 2062.52 46.8031C2033.31 44.4046 2008.48 47.5406 1981.92 54.0693C1949.8 61.9052 1916.18 67.8085 1881.67 71.6723C1819.43 78.7364 1749.97 81.7303 1686.87 76.5893C1608.83 70.219 1533.83 55.4789 1456.81 46.4643" stroke="url(#paint92_linear_465_2979)" stroke-miterlimit="10"/>
<path d="M2916.24 37.8924C2847.07 39.4931 2787.77 63.5702 2716.93 56.2438C2658.56 50.1849 2608.14 31.1014 2549.95 24.8349C2490.44 18.4428 2423.74 29.6208 2365.83 36.7232C2310.74 43.4814 2255.45 52.0916 2199.32 55.9488C2150.43 59.3087 2108.03 47.8029 2060.58 44.8144C2031.19 42.9624 2006.17 46.3824 1979.5 52.8292C1947.64 60.4422 1914.22 66.0075 1879.95 69.4105C1817.31 75.7644 1749.08 77.1794 1685.98 72.0766C1608.51 65.8156 1533.22 53.1133 1456.86 43.9676" stroke="url(#paint93_linear_465_2979)" stroke-miterlimit="10"/>
<path d="M2916.22 34.8328C2846.54 36.5155 2787.07 60.8384 2715.67 53.7032C2657.3 47.8629 2606.44 29.2383 2548.17 23.3597C2488.77 17.35 2422.62 28.4024 2364.73 35.3081C2310 41.8641 2254.83 49.9444 2198.94 53.0203C2150.14 55.7083 2106.28 45.0984 2058.48 42.9896C2028.87 41.6838 2003.75 45.4044 1976.83 51.7637C1945.21 59.1499 1912 64.3699 1877.97 67.3015C1735.07 80.0257 1595.03 58.5601 1456.72 41.6237" stroke="url(#paint94_linear_465_2979)" stroke-miterlimit="10"/>
<path d="M2916.2 31.8717C2846 33.6473 2786.36 58.1833 2714.37 51.2721C2656 45.6667 2604.71 27.5065 2546.37 21.9721C2487.07 16.3448 2421.47 27.2606 2363.7 33.9642C2309.29 40.2962 2254.29 47.852 2198.64 50.1303C2149.85 52.1462 2104.62 42.4816 2056.46 41.225C2026.68 40.4601 2001.34 44.503 1974.27 50.7695C1943.02 58.0521 1909.83 62.696 1876.13 65.2638C1736.86 75.8791 1591.6 56.1727 1456.75 39.3511" stroke="url(#paint95_linear_465_2979)" stroke-miterlimit="10"/>
<path d="M2916.18 29.0308C2845.47 30.8992 2785.64 55.6482 2713.06 48.9666C2654.68 43.5742 2602.96 25.9002 2544.56 20.7374C2485.36 15.5089 2420.33 26.2772 2362.62 32.7568C2308.5 38.8484 2253.69 45.8688 2198.3 47.404C2149.42 48.7589 2102.91 40.0066 2054.38 39.6406C2024.43 39.4166 1998.93 43.7764 1971.65 49.9663C1940.6 57.0086 1907.63 61.2537 1874.21 63.3625C1810.55 67.3781 1746 63.958 1682.87 59.0465C1607.12 53.1515 1531.26 46.6829 1456.73 37.193" stroke="url(#paint96_linear_465_2979)" stroke-miterlimit="10"/>
<path d="M2916.16 26.3046C2845.54 28.2331 2785.79 53.0259 2713.28 46.9178C2655.14 42.0008 2603.32 25.0152 2545.37 19.8633C2486.79 14.6567 2423.07 24.9879 2365.86 31.2271C2310.57 37.2368 2254.55 43.9512 2197.95 44.7926C2147.7 45.5411 2098.73 37.2695 2048.59 38.2366C2018.33 38.8211 1993.1 44.1534 1965.37 50.0757C1936.55 56.2274 1906.13 59.7513 1875.36 61.4176C1809.86 64.9633 1744.91 59.7349 1680.19 54.8015C1605.5 49.1086 1530.13 44.727 1456.67 35.2098" stroke="url(#paint97_linear_465_2979)" stroke-miterlimit="10"/>
<path d="M2916.15 23.6983C2845.04 25.7198 2785.05 50.7201 2712.01 44.847C2653.85 40.1704 2601.62 23.6328 2543.57 18.8578C2485.11 14.0719 2421.9 24.2556 2364.78 30.2926C2309.75 36.1165 2253.94 42.312 2197.63 42.312C2147.09 42.312 2097.04 35.1386 2046.49 36.9688C2016.18 38.0615 1990.74 43.6997 1962.79 49.4963C1934.17 55.4295 1903.95 58.5819 1873.44 59.8275C1807.73 62.51 1743.9 55.6098 1679.2 50.813C1604.99 45.3114 1529.64 42.9676 1456.7 33.3302" stroke="url(#paint98_linear_465_2979)" stroke-miterlimit="10"/>
<path d="M2916.13 21.2181C2844.48 23.3325 2784.37 48.535 2710.71 42.8913C2652.53 38.4332 2599.89 22.36 2541.77 17.9565C2483.43 13.5257 2420.71 23.6384 2363.62 29.4787C2308.89 35.0896 2253.3 40.7278 2197.29 39.9302C2146.38 39.2035 2095.35 33.1064 2044.37 35.7889C2014.02 37.3897 1988.38 43.3284 1960.25 48.9993C1931.87 54.7195 1901.79 57.5003 1871.57 58.3253C1805.69 60.1337 1742.91 51.5944 1678.23 46.9287C1604.49 41.6074 1529.24 41.3124 1456.73 31.5548" stroke="url(#paint99_linear_465_2979)" stroke-miterlimit="10"/>
<path d="M2916.11 18.8634C2843.97 21.0487 2783.6 46.4643 2709.42 41.0556C2651.24 36.8105 2598.19 21.1744 2539.97 17.1643C2481.76 13.1542 2419.55 23.1303 2362.61 28.7685C2308.01 34.1772 2252.69 39.2854 2196.97 37.6847C2145.62 36.2096 2093.72 31.2051 2042.31 34.729C2011.91 36.8105 1986.08 43.0716 1957.68 48.6114C1929.28 54.1513 1899.59 56.5333 1869.65 56.9485C1803.77 57.8718 1741.83 47.7318 1677.21 43.1972C1603.9 38.0507 1528.72 39.799 1456.69 29.8994" stroke="url(#paint100_linear_465_2979)" stroke-miterlimit="10"/>
<path d="M2916.1 16.6342C2843.46 18.9289 2782.88 44.4974 2708.18 39.34C2649.96 35.3026 2596.53 20.1417 2538.23 16.4703C2480.18 12.8154 2418.35 22.7259 2361.52 28.1729C2307.08 33.3849 2252.06 37.9577 2196.62 35.5703C2144.76 33.3357 2092.08 29.4185 2040.22 33.7673C2009.91 36.3133 1983.78 42.9021 1955.18 48.3163C1927.11 53.6267 1897.41 55.67 1867.8 55.6864C1801.92 55.7301 1740.76 44.0385 1676.24 39.6241C1603.27 34.6306 1528.27 38.4167 1456.69 28.3586" stroke="url(#paint101_linear_465_2979)" stroke-miterlimit="10"/>
<path d="M2916.09 14.542C2842.96 16.9131 2782.2 42.6947 2706.96 37.734C2648.71 33.9096 2594.9 19.1585 2536.53 15.8805C2478.54 12.6025 2417.33 22.4365 2360.48 27.6923C2306.16 32.6967 2251.41 36.756 2196.29 33.5927C2143.87 30.5879 2090.52 27.7579 2038.19 32.9153C2007.88 35.8928 1981.53 42.8149 1952.72 48.1034C1924.77 53.2281 1895.33 54.9053 1865.99 54.5338C1800.21 53.7088 1739.7 40.5203 1675.27 36.2097C1602.71 31.3582 1527.9 37.1822 1456.65 26.922" stroke="url(#paint102_linear_465_2979)" stroke-miterlimit="10"/>
<path d="M2916.07 12.5806C2842.49 15.0336 2781.51 40.99 2705.77 36.2478C2647.5 32.5929 2593.27 18.3171 2534.88 15.3505C2477.01 12.4112 2416.3 22.2289 2359.48 27.2879C2305.26 32.1012 2250.78 35.6523 2195.98 31.7296C2142.97 27.9381 2088.96 26.1789 2036.26 32.1285C2005.99 35.5431 1979.41 42.793 1950.35 47.9722C1922.57 52.8892 1893.28 54.2442 1864.2 53.4957C1798.59 51.8184 1738.59 37.1985 1674.28 32.9808C1602.06 28.244 1527.48 36.0894 1456.57 25.6271" stroke="url(#paint103_linear_465_2979)" stroke-miterlimit="10"/>
<path d="M2916.06 10.7559C2842.07 13.2854 2780.88 39.4276 2704.65 34.8766C2646.34 31.391 2591.82 17.5468 2533.29 14.908C2475.52 12.3075 2415.25 22.1087 2358.53 26.993C2304.37 31.6641 2250.17 34.6799 2195.7 30.0142C2142.07 25.425 2087.57 24.7147 2034.42 31.4347C2004.2 35.259 1977.38 42.8367 1948.12 47.8958C1920.49 52.6708 1891.36 53.6596 1862.58 52.556C1797.2 50.0484 1737.62 34.0789 1673.42 29.9159C1601.46 25.2665 1527.18 35.1224 1456.59 24.4088" stroke="url(#paint104_linear_465_2979)" stroke-miterlimit="10"/>
<path d="M2916.05 9.07837C2841.59 11.668 2780.24 37.985 2703.59 33.6143C2645.23 30.2926 2590.37 16.8582 2531.78 14.5417C2474.1 12.2635 2414.3 22.0648 2357.62 26.796C2303.52 31.3142 2249.58 33.8274 2195.41 28.4351C2141.24 23.0427 2086.21 23.3596 2032.63 30.8225C2002.49 35.0239 1975.4 42.8419 1945.98 47.8792C1918.61 52.5722 1889.44 53.1622 1861.01 51.7035C1795.91 48.4255 1736.66 31.1667 1672.59 27.0583C1600.95 22.4636 1526.88 34.3136 1456.59 23.3104" stroke="url(#paint105_linear_465_2979)" stroke-miterlimit="10"/>
<path d="M2915.99 7.51587C2841.13 10.1601 2779.64 36.652 2702.53 32.4507C2644.19 29.2874 2589.01 16.2572 2530.35 14.2413C2472.8 12.2635 2413.39 22.0976 2356.77 26.6923C2302.7 31.063 2249.02 33.1008 2195.16 26.9982C2140.29 20.7864 2084.93 22.0812 2030.97 30.2762C2000.89 34.8327 1973.56 42.9458 1943.97 47.912C1916.72 52.4848 1887.7 52.747 1859.57 50.9933C1828.87 49.0757 1798.94 44.6831 1769.46 39.8098C1737.66 34.5595 1704.93 26.5502 1671.8 24.4304C1600.4 19.8576 1526.59 33.6744 1456.58 22.3434" stroke="url(#paint106_linear_465_2979)" stroke-miterlimit="10"/>
<path d="M2915.99 6.15015C2840.76 8.83812 2779.16 35.4993 2701.61 31.44C2643.22 28.3806 2587.74 15.711 2529.01 13.9955C2471.55 12.2964 2412.57 22.1906 2356 26.6705C2301.93 30.9429 2248.46 32.4999 2194.92 25.709C2139.45 18.6722 2083.72 20.9067 2029.37 29.812C1999.42 34.729 1971.86 43.0879 1942.12 47.9831C1914.97 52.4467 1886.09 52.4139 1858.23 50.3597C1827.59 48.1088 1797.83 43.3338 1768.53 38.1491C1736.96 32.5655 1704.18 24.141 1671.06 22.0048C1599.88 17.4211 1526.3 33.1774 1456.57 21.4585" stroke="url(#paint107_linear_465_2979)" stroke-miterlimit="10"/>
<path d="M2915.99 4.90991C2840.42 7.64159 2778.66 34.4612 2700.77 30.5221C2642.34 27.561 2586.6 15.2739 2527.81 13.8043C2470.44 12.3674 2411.85 22.3763 2355.32 26.7415C2301.24 30.91 2247.96 32.03 2194.73 24.5562C2138.63 16.7053 2082.65 19.8194 2027.91 29.4076C1998.07 34.6306 1970.31 43.2463 1940.41 48.0869C1913.38 52.4575 1884.67 52.1516 1857.01 49.8297C1826.44 47.2619 1796.84 42.1263 1767.69 36.6575C1736.33 30.7735 1703.52 21.9775 1670.39 19.8085C1599.45 15.1646 1526.04 32.8386 1456.54 20.699" stroke="url(#paint108_linear_465_2979)" stroke-miterlimit="10"/>
<path d="M2915.99 3.82275C2840.11 6.55443 2778.24 33.5598 2700.02 29.7136C2641.52 26.8344 2585.49 14.8861 2526.65 13.6568C2469.33 12.4549 2411.11 22.6113 2354.64 26.8891C2300.54 30.9811 2247.42 31.6859 2194.51 23.5728C2137.82 14.8806 2081.71 18.8142 2026.58 29.0362C1996.85 34.5596 1968.9 43.3993 1938.88 48.1962C1911.94 52.4958 1883.33 51.9495 1855.94 49.3817C1825.41 46.5189 1795.97 41.0556 1766.95 35.3245C1735.77 29.1564 1702.93 20.0599 1669.77 17.8417C1598.96 13.0995 1525.74 32.6474 1456.54 20.0271" stroke="url(#paint109_linear_465_2979)" stroke-miterlimit="10"/>
<path d="M2915.99 2.89404C2839.81 5.62572 2777.89 32.8005 2699.36 29.0144C2640.85 26.1953 2584.57 14.5638 2525.67 13.5257C2468.42 12.5369 2410.58 22.8736 2354.12 27.0913C2299.99 31.1342 2246.96 31.462 2194.36 22.7206C2137.08 13.1979 2080.94 17.8746 2025.41 28.7303C1995.8 34.5214 1967.7 43.5633 1937.56 48.3274C1910.71 52.5778 1882.24 51.8239 1855.03 49.0376C1824.55 45.9071 1795.24 40.1487 1766.34 34.1772C1735.3 27.7578 1702.49 18.4264 1669.24 16.1482C1598.59 11.2584 1525.45 32.6475 1456.53 19.4699" stroke="url(#paint110_linear_465_2979)" stroke-miterlimit="10"/>
<path d="M2915.99 2.11816C2840.19 4.84984 2778.46 32.0246 2700.39 28.5007C2638.7 25.7199 2579.07 13.1596 2516.82 13.4164C2463.6 13.6349 2410.19 23.0592 2357.62 27.113C2301.77 31.4182 2248.31 31.298 2194.22 22.0813C2134.24 11.8867 2078.04 17.2462 2020.23 29.3694C1994.31 34.8 1969.62 42.2083 1943.51 47.2947C1915.89 52.6761 1885.55 52.1516 1857.12 49.1632C1824.86 45.7759 1793.98 39.3291 1763.56 32.7731C1732.89 26.1406 1700.28 16.8037 1667.21 14.6183C1597.28 10.0236 1524.55 32.7075 1456.54 19.0273" stroke="url(#paint111_linear_465_2979)" stroke-miterlimit="10"/>
<path d="M2915.99 1.5061C2839.97 4.19954 2778.25 31.5546 2699.97 28.0253C2638.25 25.2389 2578.35 12.9737 2516.12 13.3835C2462.94 13.7386 2409.81 23.4251 2357.27 27.4844C2301.37 31.8004 2247.92 31.3743 2194.09 21.5566C2133.51 10.4988 2077.6 16.4866 2019.31 29.2053C1993.52 34.8326 1968.76 42.3065 1942.58 47.3983C1915.01 52.7852 1884.81 52.1515 1856.54 48.9936C1824.31 45.3933 1793.55 38.6679 1763.21 31.937C1732.58 25.1406 1699.99 15.6999 1666.84 13.4053C1597.04 8.60847 1524.23 32.9915 1456.53 18.6501" stroke="url(#paint112_linear_465_2979)" stroke-miterlimit="10"/>
<path d="M2915.99 1.06934C2839.82 3.71907 2778.15 31.238 2699.64 27.6541C2637.92 24.835 2577.88 12.832 2515.57 13.3728C2462.41 13.8317 2409.54 23.8297 2357.02 27.9218C2301.09 32.2924 2247.56 31.5986 2194.07 21.1909C2132.9 9.29169 2077.44 15.7822 2018.66 29.0363C1992.92 34.8329 1968.1 42.3833 1941.9 47.5352C1914.36 52.9494 1884.42 52.2665 1856.17 48.9612C1790.91 41.3125 1732.44 17.3665 1666.55 12.5369C1596.87 7.42869 1523.87 33.4561 1456.53 18.3937" stroke="url(#paint113_linear_465_2979)" stroke-miterlimit="10"/>
<path d="M2915.99 0.791016C2839.7 3.38611 2778.05 31.069 2699.45 27.3976C2637.72 24.5075 2577.47 12.7394 2515.19 13.3677C2462.03 13.914 2409.38 24.2616 2356.88 28.4247C2300.94 32.8609 2247.22 31.965 2194.04 20.9945C2132.33 8.25943 2077.49 15.1269 2018.15 28.9164C1992.63 34.8332 1967.75 42.6731 1941.49 47.623C1913.6 52.8732 1884.56 52.4471 1856.01 48.9943C1790.64 41.0833 1732.49 17.1155 1666.37 11.9363C1596.78 6.47291 1523.47 34.0902 1456.57 18.2301" stroke="url(#paint114_linear_465_2979)" stroke-miterlimit="10"/>
<path d="M2915.99 0.686768C2839.62 3.20538 2778.08 31.0521 2699.4 27.2442C2637.67 24.2557 2577.34 12.6843 2514.94 13.3618C2461.76 13.9409 2409.32 24.7256 2356.83 28.987C2300.89 33.527 2246.89 32.4835 2194.02 20.9613C2131.83 7.39578 2077.76 14.5091 2017.86 28.8231C1963.13 41.8914 1918.03 56.7682 1856.06 49.1085C1790.51 41.0064 1732.64 17.2408 1666.29 11.6463C1596.78 5.78408 1523.08 34.8929 1456.49 18.2023" stroke="url(#paint115_linear_465_2979)" stroke-miterlimit="10"/>
<defs>
<linearGradient id="paint0_linear_465_2979" x1="1.05218e+06" y1="8362.73" x2="1.05218e+06" y2="2377.34" gradientUnits="userSpaceOnUse">
<stop stop-color="#FDFDFD"/>
<stop offset="1" stop-color="#253137"/>
</linearGradient>
<linearGradient id="paint1_linear_465_2979" x1="1.05218e+06" y1="8897.19" x2="1.05218e+06" y2="2514.76" gradientUnits="userSpaceOnUse">
<stop stop-color="#FDFDFD"/>
<stop offset="1" stop-color="#253137"/>
</linearGradient>
<linearGradient id="paint2_linear_465_2979" x1="1.0522e+06" y1="9182.26" x2="1.0522e+06" y2="2585.82" gradientUnits="userSpaceOnUse">
<stop stop-color="#FDFDFD"/>
<stop offset="1" stop-color="#253137"/>
</linearGradient>
<linearGradient id="paint3_linear_465_2979" x1="1.05218e+06" y1="9308.5" x2="1.05218e+06" y2="2614.35" gradientUnits="userSpaceOnUse">
<stop stop-color="#FDFDFD"/>
<stop offset="1" stop-color="#253137"/>
</linearGradient>
<linearGradient id="paint4_linear_465_2979" x1="1.05215e+06" y1="9436.47" x2="1.05215e+06" y2="2643.33" gradientUnits="userSpaceOnUse">
<stop stop-color="#FDFDFD"/>
<stop offset="1" stop-color="#253137"/>
</linearGradient>
<linearGradient id="paint5_linear_465_2979" x1="1.05216e+06" y1="9508.65" x2="1.05216e+06" y2="2657.82" gradientUnits="userSpaceOnUse">
<stop stop-color="#FDFDFD"/>
<stop offset="1" stop-color="#253137"/>
</linearGradient>
<linearGradient id="paint6_linear_465_2979" x1="1.0522e+06" y1="9529.01" x2="1.0522e+06" y2="2658.81" gradientUnits="userSpaceOnUse">
<stop stop-color="#FDFDFD"/>
<stop offset="1" stop-color="#253137"/>
</linearGradient>
<linearGradient id="paint7_linear_465_2979" x1="1.05218e+06" y1="9504.01" x2="1.05218e+06" y2="2648.02" gradientUnits="userSpaceOnUse">
<stop stop-color="#FDFDFD"/>
<stop offset="1" stop-color="#253137"/>
</linearGradient>
<linearGradient id="paint8_linear_465_2979" x1="1.05218e+06" y1="9437.92" x2="1.05218e+06" y2="2626.56" gradientUnits="userSpaceOnUse">
<stop stop-color="#FDFDFD"/>
<stop offset="1" stop-color="#253137"/>
</linearGradient>
<linearGradient id="paint9_linear_465_2979" x1="1.05218e+06" y1="9286.89" x2="1.05218e+06" y2="2582.95" gradientUnits="userSpaceOnUse">
<stop stop-color="#FDFDFD"/>
<stop offset="1" stop-color="#253137"/>
</linearGradient>
<linearGradient id="paint10_linear_465_2979" x1="1.05219e+06" y1="9185.69" x2="1.05219e+06" y2="2552.52" gradientUnits="userSpaceOnUse">
<stop stop-color="#FDFDFD"/>
<stop offset="1" stop-color="#253137"/>
</linearGradient>
<linearGradient id="paint11_linear_465_2979" x1="1.05215e+06" y1="9063.51" x2="1.05215e+06" y2="2516.67" gradientUnits="userSpaceOnUse">
<stop stop-color="#FDFDFD"/>
<stop offset="1" stop-color="#253137"/>
</linearGradient>
<linearGradient id="paint12_linear_465_2979" x1="1.05218e+06" y1="8933.82" x2="1.05218e+06" y2="2478.98" gradientUnits="userSpaceOnUse">
<stop stop-color="#FDFDFD"/>
<stop offset="1" stop-color="#253137"/>
</linearGradient>
<linearGradient id="paint13_linear_465_2979" x1="1.0522e+06" y1="8796.71" x2="1.0522e+06" y2="2439.41" gradientUnits="userSpaceOnUse">
<stop stop-color="#FDFDFD"/>
<stop offset="1" stop-color="#253137"/>
</linearGradient>
<linearGradient id="paint14_linear_465_2979" x1="1.05216e+06" y1="8657.79" x2="1.05216e+06" y2="2399.43" gradientUnits="userSpaceOnUse">
<stop stop-color="#FDFDFD"/>
<stop offset="1" stop-color="#253137"/>
</linearGradient>
<linearGradient id="paint15_linear_465_2979" x1="1.05218e+06" y1="8476.91" x2="1.05218e+06" y2="2348.5" gradientUnits="userSpaceOnUse">
<stop stop-color="#FDFDFD"/>
<stop offset="1" stop-color="#253137"/>
</linearGradient>
<linearGradient id="paint16_linear_465_2979" x1="1.05215e+06" y1="8347.46" x2="1.05215e+06" y2="2311.15" gradientUnits="userSpaceOnUse">
<stop stop-color="#FDFDFD"/>
<stop offset="1" stop-color="#253137"/>
</linearGradient>
<linearGradient id="paint17_linear_465_2979" x1="1.05215e+06" y1="8232.08" x2="1.05215e+06" y2="2277.54" gradientUnits="userSpaceOnUse">
<stop stop-color="#FDFDFD"/>
<stop offset="1" stop-color="#253137"/>
</linearGradient>
<linearGradient id="paint18_linear_465_2979" x1="1.05215e+06" y1="8141.42" x2="1.05215e+06" y2="2250.49" gradientUnits="userSpaceOnUse">
<stop stop-color="#FDFDFD"/>
<stop offset="1" stop-color="#253137"/>
</linearGradient>
<linearGradient id="paint19_linear_465_2979" x1="1.0522e+06" y1="8063.2" x2="1.0522e+06" y2="2226.67" gradientUnits="userSpaceOnUse">
<stop stop-color="#FDFDFD"/>
<stop offset="1" stop-color="#253137"/>
</linearGradient>
<linearGradient id="paint20_linear_465_2979" x1="1.05218e+06" y1="8024.4" x2="1.05218e+06" y2="2213.26" gradientUnits="userSpaceOnUse">
<stop stop-color="#FDFDFD"/>
<stop offset="1" stop-color="#253137"/>
</linearGradient>
<linearGradient id="paint21_linear_465_2979" x1="1.05218e+06" y1="8005.79" x2="1.05218e+06" y2="2205.15" gradientUnits="userSpaceOnUse">
<stop stop-color="#FDFDFD"/>
<stop offset="1" stop-color="#253137"/>
</linearGradient>
<linearGradient id="paint22_linear_465_2979" x1="1.0522e+06" y1="7954.55" x2="1.0522e+06" y2="2188.41" gradientUnits="userSpaceOnUse">
<stop stop-color="#FDFDFD"/>
<stop offset="1" stop-color="#253137"/>
</linearGradient>
<linearGradient id="paint23_linear_465_2979" x1="1.05218e+06" y1="7877.57" x2="1.05218e+06" y2="2164.87" gradientUnits="userSpaceOnUse">
<stop stop-color="#FDFDFD"/>
<stop offset="1" stop-color="#253137"/>
</linearGradient>
<linearGradient id="paint24_linear_465_2979" x1="1.0522e+06" y1="7765.25" x2="1.0522e+06" y2="2131.98" gradientUnits="userSpaceOnUse">
<stop stop-color="#FDFDFD"/>
<stop offset="1" stop-color="#253137"/>
</linearGradient>
<linearGradient id="paint25_linear_465_2979" x1="1.05218e+06" y1="7630.73" x2="1.05218e+06" y2="2093.25" gradientUnits="userSpaceOnUse">
<stop stop-color="#FDFDFD"/>
<stop offset="1" stop-color="#253137"/>
</linearGradient>
<linearGradient id="paint26_linear_465_2979" x1="1.0522e+06" y1="7469.91" x2="1.0522e+06" y2="2047.57" gradientUnits="userSpaceOnUse">
<stop stop-color="#FDFDFD"/>
<stop offset="1" stop-color="#253137"/>
</linearGradient>
<linearGradient id="paint27_linear_465_2979" x1="1.05217e+06" y1="7290.61" x2="1.05217e+06" y2="1997.07" gradientUnits="userSpaceOnUse">
<stop stop-color="#FDFDFD"/>
<stop offset="1" stop-color="#253137"/>
</linearGradient>
<linearGradient id="paint28_linear_465_2979" x1="1.05218e+06" y1="7087.59" x2="1.05218e+06" y2="1940.3" gradientUnits="userSpaceOnUse">
<stop stop-color="#FDFDFD"/>
<stop offset="1" stop-color="#253137"/>
</linearGradient>
<linearGradient id="paint29_linear_465_2979" x1="1.05216e+06" y1="6862.25" x2="1.05216e+06" y2="1877.66" gradientUnits="userSpaceOnUse">
<stop stop-color="#FDFDFD"/>
<stop offset="1" stop-color="#253137"/>
</linearGradient>
<linearGradient id="paint30_linear_465_2979" x1="1.05218e+06" y1="6629.84" x2="1.05218e+06" y2="1813.24" gradientUnits="userSpaceOnUse">
<stop stop-color="#FDFDFD"/>
<stop offset="1" stop-color="#253137"/>
</linearGradient>
<linearGradient id="paint31_linear_465_2979" x1="1.05218e+06" y1="6378.65" x2="1.05218e+06" y2="1743.87" gradientUnits="userSpaceOnUse">
<stop stop-color="#FDFDFD"/>
<stop offset="1" stop-color="#253137"/>
</linearGradient>
<linearGradient id="paint32_linear_465_2979" x1="1.05218e+06" y1="6125.54" x2="1.05218e+06" y2="1674.12" gradientUnits="userSpaceOnUse">
<stop stop-color="#FDFDFD"/>
<stop offset="1" stop-color="#253137"/>
</linearGradient>
<linearGradient id="paint33_linear_465_2979" x1="1.05218e+06" y1="5859.19" x2="1.05218e+06" y2="1600.91" gradientUnits="userSpaceOnUse">
<stop stop-color="#FDFDFD"/>
<stop offset="1" stop-color="#253137"/>
</linearGradient>
<linearGradient id="paint34_linear_465_2979" x1="1.05218e+06" y1="5594.05" x2="1.05218e+06" y2="1528.15" gradientUnits="userSpaceOnUse">
<stop stop-color="#FDFDFD"/>
<stop offset="1" stop-color="#253137"/>
</linearGradient>
<linearGradient id="paint35_linear_465_2979" x1="1.05212e+06" y1="5334.49" x2="1.05212e+06" y2="1457.01" gradientUnits="userSpaceOnUse">
<stop stop-color="#FDFDFD"/>
<stop offset="1" stop-color="#253137"/>
</linearGradient>
<linearGradient id="paint36_linear_465_2979" x1="1.05221e+06" y1="5056.49" x2="1.05221e+06" y2="1381" gradientUnits="userSpaceOnUse">
<stop stop-color="#FDFDFD"/>
<stop offset="1" stop-color="#253137"/>
</linearGradient>
<linearGradient id="paint37_linear_465_2979" x1="1.05218e+06" y1="4885.1" x2="1.05218e+06" y2="1333.83" gradientUnits="userSpaceOnUse">
<stop stop-color="#FDFDFD"/>
<stop offset="1" stop-color="#253137"/>
</linearGradient>
<linearGradient id="paint38_linear_465_2979" x1="1.05218e+06" y1="4673.89" x2="1.05218e+06" y2="1276.03" gradientUnits="userSpaceOnUse">
<stop stop-color="#FDFDFD"/>
<stop offset="1" stop-color="#253137"/>
</linearGradient>
<linearGradient id="paint39_linear_465_2979" x1="1.0522e+06" y1="4506" x2="1.0522e+06" y2="1230.04" gradientUnits="userSpaceOnUse">
<stop stop-color="#FDFDFD"/>
<stop offset="1" stop-color="#253137"/>
</linearGradient>
<linearGradient id="paint40_linear_465_2979" x1="1.05218e+06" y1="4370.19" x2="1.05218e+06" y2="1192.77" gradientUnits="userSpaceOnUse">
<stop stop-color="#FDFDFD"/>
<stop offset="1" stop-color="#253137"/>
</linearGradient>
<linearGradient id="paint41_linear_465_2979" x1="1.05214e+06" y1="4257.27" x2="1.05214e+06" y2="1161.74" gradientUnits="userSpaceOnUse">
<stop stop-color="#FDFDFD"/>
<stop offset="1" stop-color="#253137"/>
</linearGradient>
<linearGradient id="paint42_linear_465_2979" x1="1.05215e+06" y1="4161.23" x2="1.05215e+06" y2="1135.35" gradientUnits="userSpaceOnUse">
<stop stop-color="#FDFDFD"/>
<stop offset="1" stop-color="#253137"/>
</linearGradient>
<linearGradient id="paint43_linear_465_2979" x1="1.05215e+06" y1="4083.1" x2="1.05215e+06" y2="1113.85" gradientUnits="userSpaceOnUse">
<stop stop-color="#FDFDFD"/>
<stop offset="1" stop-color="#253137"/>
</linearGradient>
<linearGradient id="paint44_linear_465_2979" x1="1.05216e+06" y1="4085.54" x2="1.05216e+06" y2="1113.68" gradientUnits="userSpaceOnUse">
<stop stop-color="#FDFDFD"/>
<stop offset="1" stop-color="#253137"/>
</linearGradient>
<linearGradient id="paint45_linear_465_2979" x1="1.05221e+06" y1="4191.96" x2="1.05221e+06" y2="1140.98" gradientUnits="userSpaceOnUse">
<stop stop-color="#FDFDFD"/>
<stop offset="1" stop-color="#253137"/>
</linearGradient>
<linearGradient id="paint46_linear_465_2979" x1="1.05218e+06" y1="4302.22" x2="1.05218e+06" y2="1169.41" gradientUnits="userSpaceOnUse">
<stop stop-color="#FDFDFD"/>
<stop offset="1" stop-color="#253137"/>
</linearGradient>
<linearGradient id="paint47_linear_465_2979" x1="1.05218e+06" y1="4414.43" x2="1.05218e+06" y2="1198.48" gradientUnits="userSpaceOnUse">
<stop stop-color="#FDFDFD"/>
<stop offset="1" stop-color="#253137"/>
</linearGradient>
<linearGradient id="paint48_linear_465_2979" x1="1.05214e+06" y1="4529.86" x2="1.05214e+06" y2="1228.51" gradientUnits="userSpaceOnUse">
<stop stop-color="#FDFDFD"/>
<stop offset="1" stop-color="#253137"/>
</linearGradient>
<linearGradient id="paint49_linear_465_2979" x1="1.05215e+06" y1="4636.84" x2="1.05215e+06" y2="1256.4" gradientUnits="userSpaceOnUse">
<stop stop-color="#FDFDFD"/>
<stop offset="1" stop-color="#253137"/>
</linearGradient>
<linearGradient id="paint50_linear_465_2979" x1="1.05217e+06" y1="4741.45" x2="1.05217e+06" y2="1283.73" gradientUnits="userSpaceOnUse">
<stop stop-color="#FDFDFD"/>
<stop offset="1" stop-color="#253137"/>
</linearGradient>
<linearGradient id="paint51_linear_465_2979" x1="1.05217e+06" y1="4837.94" x2="1.05217e+06" y2="1308.99" gradientUnits="userSpaceOnUse">
<stop stop-color="#FDFDFD"/>
<stop offset="1" stop-color="#253137"/>
</linearGradient>
<linearGradient id="paint52_linear_465_2979" x1="1.05218e+06" y1="4926.49" x2="1.05218e+06" y2="1332.22" gradientUnits="userSpaceOnUse">
<stop stop-color="#FDFDFD"/>
<stop offset="1" stop-color="#253137"/>
</linearGradient>
<linearGradient id="paint53_linear_465_2979" x1="1.05217e+06" y1="5011.39" x2="1.05217e+06" y2="1354.58" gradientUnits="userSpaceOnUse">
<stop stop-color="#FDFDFD"/>
<stop offset="1" stop-color="#253137"/>
</linearGradient>
<linearGradient id="paint54_linear_465_2979" x1="1.05218e+06" y1="5075.28" x2="1.05218e+06" y2="1371.38" gradientUnits="userSpaceOnUse">
<stop stop-color="#FDFDFD"/>
<stop offset="1" stop-color="#253137"/>
</linearGradient>
<linearGradient id="paint55_linear_465_2979" x1="1.05218e+06" y1="5130.79" x2="1.05218e+06" y2="1386.05" gradientUnits="userSpaceOnUse">
<stop stop-color="#FDFDFD"/>
<stop offset="1" stop-color="#253137"/>
</linearGradient>
<linearGradient id="paint56_linear_465_2979" x1="1.05215e+06" y1="5164.71" x2="1.05215e+06" y2="1395" gradientUnits="userSpaceOnUse">
<stop stop-color="#FDFDFD"/>
<stop offset="1" stop-color="#253137"/>
</linearGradient>
<linearGradient id="paint57_linear_465_2979" x1="1.05221e+06" y1="5136.45" x2="1.05221e+06" y2="1387.3" gradientUnits="userSpaceOnUse">
<stop stop-color="#FDFDFD"/>
<stop offset="1" stop-color="#253137"/>
</linearGradient>
<linearGradient id="paint58_linear_465_2979" x1="-1.04926e+06" y1="8362.73" x2="-1.04926e+06" y2="2377.34" gradientUnits="userSpaceOnUse">
<stop stop-color="#FDFDFD"/>
<stop offset="1" stop-color="#253137"/>
</linearGradient>
<linearGradient id="paint59_linear_465_2979" x1="-1.04926e+06" y1="8897.19" x2="-1.04926e+06" y2="2514.76" gradientUnits="userSpaceOnUse">
<stop stop-color="#FDFDFD"/>
<stop offset="1" stop-color="#253137"/>
</linearGradient>
<linearGradient id="paint60_linear_465_2979" x1="-1.04929e+06" y1="9182.26" x2="-1.04929e+06" y2="2585.82" gradientUnits="userSpaceOnUse">
<stop stop-color="#FDFDFD"/>
<stop offset="1" stop-color="#253137"/>
</linearGradient>
<linearGradient id="paint61_linear_465_2979" x1="-1.04926e+06" y1="9308.5" x2="-1.04926e+06" y2="2614.35" gradientUnits="userSpaceOnUse">
<stop stop-color="#FDFDFD"/>
<stop offset="1" stop-color="#253137"/>
</linearGradient>
<linearGradient id="paint62_linear_465_2979" x1="-1.04924e+06" y1="9436.47" x2="-1.04924e+06" y2="2643.33" gradientUnits="userSpaceOnUse">
<stop stop-color="#FDFDFD"/>
<stop offset="1" stop-color="#253137"/>
</linearGradient>
<linearGradient id="paint63_linear_465_2979" x1="-1.04925e+06" y1="9508.65" x2="-1.04925e+06" y2="2657.82" gradientUnits="userSpaceOnUse">
<stop stop-color="#FDFDFD"/>
<stop offset="1" stop-color="#253137"/>
</linearGradient>
<linearGradient id="paint64_linear_465_2979" x1="-1.04928e+06" y1="9529.01" x2="-1.04928e+06" y2="2658.81" gradientUnits="userSpaceOnUse">
<stop stop-color="#FDFDFD"/>
<stop offset="1" stop-color="#253137"/>
</linearGradient>
<linearGradient id="paint65_linear_465_2979" x1="-1.04926e+06" y1="9504.01" x2="-1.04926e+06" y2="2648.02" gradientUnits="userSpaceOnUse">
<stop stop-color="#FDFDFD"/>
<stop offset="1" stop-color="#253137"/>
</linearGradient>
<linearGradient id="paint66_linear_465_2979" x1="-1.04926e+06" y1="9437.92" x2="-1.04926e+06" y2="2626.56" gradientUnits="userSpaceOnUse">
<stop stop-color="#FDFDFD"/>
<stop offset="1" stop-color="#253137"/>
</linearGradient>
<linearGradient id="paint67_linear_465_2979" x1="-1.04927e+06" y1="9286.89" x2="-1.04927e+06" y2="2582.95" gradientUnits="userSpaceOnUse">
<stop stop-color="#FDFDFD"/>
<stop offset="1" stop-color="#253137"/>
</linearGradient>
<linearGradient id="paint68_linear_465_2979" x1="-1.04928e+06" y1="9185.69" x2="-1.04928e+06" y2="2552.52" gradientUnits="userSpaceOnUse">
<stop stop-color="#FDFDFD"/>
<stop offset="1" stop-color="#253137"/>
</linearGradient>
<linearGradient id="paint69_linear_465_2979" x1="-1.04923e+06" y1="9063.51" x2="-1.04923e+06" y2="2516.67" gradientUnits="userSpaceOnUse">
<stop stop-color="#FDFDFD"/>
<stop offset="1" stop-color="#253137"/>
</linearGradient>
<linearGradient id="paint70_linear_465_2979" x1="-1.04926e+06" y1="8933.82" x2="-1.04926e+06" y2="2478.98" gradientUnits="userSpaceOnUse">
<stop stop-color="#FDFDFD"/>
<stop offset="1" stop-color="#253137"/>
</linearGradient>
<linearGradient id="paint71_linear_465_2979" x1="-1.04929e+06" y1="8796.71" x2="-1.04929e+06" y2="2439.41" gradientUnits="userSpaceOnUse">
<stop stop-color="#FDFDFD"/>
<stop offset="1" stop-color="#253137"/>
</linearGradient>
<linearGradient id="paint72_linear_465_2979" x1="-1.04925e+06" y1="8657.79" x2="-1.04925e+06" y2="2399.43" gradientUnits="userSpaceOnUse">
<stop stop-color="#FDFDFD"/>
<stop offset="1" stop-color="#253137"/>
</linearGradient>
<linearGradient id="paint73_linear_465_2979" x1="-1.04926e+06" y1="8476.91" x2="-1.04926e+06" y2="2348.5" gradientUnits="userSpaceOnUse">
<stop stop-color="#FDFDFD"/>
<stop offset="1" stop-color="#253137"/>
</linearGradient>
<linearGradient id="paint74_linear_465_2979" x1="-1.04923e+06" y1="8347.46" x2="-1.04923e+06" y2="2311.15" gradientUnits="userSpaceOnUse">
<stop stop-color="#FDFDFD"/>
<stop offset="1" stop-color="#253137"/>
</linearGradient>
<linearGradient id="paint75_linear_465_2979" x1="-1.04924e+06" y1="8232.08" x2="-1.04924e+06" y2="2277.54" gradientUnits="userSpaceOnUse">
<stop stop-color="#FDFDFD"/>
<stop offset="1" stop-color="#253137"/>
</linearGradient>
<linearGradient id="paint76_linear_465_2979" x1="-1.04923e+06" y1="8141.42" x2="-1.04923e+06" y2="2250.49" gradientUnits="userSpaceOnUse">
<stop stop-color="#FDFDFD"/>
<stop offset="1" stop-color="#253137"/>
</linearGradient>
<linearGradient id="paint77_linear_465_2979" x1="-1.04929e+06" y1="8063.2" x2="-1.04929e+06" y2="2226.67" gradientUnits="userSpaceOnUse">
<stop stop-color="#FDFDFD"/>
<stop offset="1" stop-color="#253137"/>
</linearGradient>
<linearGradient id="paint78_linear_465_2979" x1="-1.04926e+06" y1="8024.4" x2="-1.04926e+06" y2="2213.26" gradientUnits="userSpaceOnUse">
<stop stop-color="#FDFDFD"/>
<stop offset="1" stop-color="#253137"/>
</linearGradient>
<linearGradient id="paint79_linear_465_2979" x1="-1.04926e+06" y1="8005.79" x2="-1.04926e+06" y2="2205.15" gradientUnits="userSpaceOnUse">
<stop stop-color="#FDFDFD"/>
<stop offset="1" stop-color="#253137"/>
</linearGradient>
<linearGradient id="paint80_linear_465_2979" x1="-1.04928e+06" y1="7954.55" x2="-1.04928e+06" y2="2188.41" gradientUnits="userSpaceOnUse">
<stop stop-color="#FDFDFD"/>
<stop offset="1" stop-color="#253137"/>
</linearGradient>
<linearGradient id="paint81_linear_465_2979" x1="-1.04926e+06" y1="7877.57" x2="-1.04926e+06" y2="2164.87" gradientUnits="userSpaceOnUse">
<stop stop-color="#FDFDFD"/>
<stop offset="1" stop-color="#253137"/>
</linearGradient>
<linearGradient id="paint82_linear_465_2979" x1="-1.04928e+06" y1="7765.25" x2="-1.04928e+06" y2="2131.98" gradientUnits="userSpaceOnUse">
<stop stop-color="#FDFDFD"/>
<stop offset="1" stop-color="#253137"/>
</linearGradient>
<linearGradient id="paint83_linear_465_2979" x1="-1.04926e+06" y1="7630.73" x2="-1.04926e+06" y2="2093.25" gradientUnits="userSpaceOnUse">
<stop stop-color="#FDFDFD"/>
<stop offset="1" stop-color="#253137"/>
</linearGradient>
<linearGradient id="paint84_linear_465_2979" x1="-1.04928e+06" y1="7469.91" x2="-1.04928e+06" y2="2047.57" gradientUnits="userSpaceOnUse">
<stop stop-color="#FDFDFD"/>
<stop offset="1" stop-color="#253137"/>
</linearGradient>
<linearGradient id="paint85_linear_465_2979" x1="-1.04925e+06" y1="7290.61" x2="-1.04925e+06" y2="1997.07" gradientUnits="userSpaceOnUse">
<stop stop-color="#FDFDFD"/>
<stop offset="1" stop-color="#253137"/>
</linearGradient>
<linearGradient id="paint86_linear_465_2979" x1="-1.04926e+06" y1="7087.59" x2="-1.04926e+06" y2="1940.3" gradientUnits="userSpaceOnUse">
<stop stop-color="#FDFDFD"/>
<stop offset="1" stop-color="#253137"/>
</linearGradient>
<linearGradient id="paint87_linear_465_2979" x1="-1.04925e+06" y1="6862.25" x2="-1.04925e+06" y2="1877.66" gradientUnits="userSpaceOnUse">
<stop stop-color="#FDFDFD"/>
<stop offset="1" stop-color="#253137"/>
</linearGradient>
<linearGradient id="paint88_linear_465_2979" x1="-1.04926e+06" y1="6629.84" x2="-1.04926e+06" y2="1813.24" gradientUnits="userSpaceOnUse">
<stop stop-color="#FDFDFD"/>
<stop offset="1" stop-color="#253137"/>
</linearGradient>
<linearGradient id="paint89_linear_465_2979" x1="-1.04926e+06" y1="6378.65" x2="-1.04926e+06" y2="1743.87" gradientUnits="userSpaceOnUse">
<stop stop-color="#FDFDFD"/>
<stop offset="1" stop-color="#253137"/>
</linearGradient>
<linearGradient id="paint90_linear_465_2979" x1="-1.04926e+06" y1="6125.54" x2="-1.04926e+06" y2="1674.12" gradientUnits="userSpaceOnUse">
<stop stop-color="#FDFDFD"/>
<stop offset="1" stop-color="#253137"/>
</linearGradient>
<linearGradient id="paint91_linear_465_2979" x1="-1.04926e+06" y1="5859.19" x2="-1.04926e+06" y2="1600.91" gradientUnits="userSpaceOnUse">
<stop stop-color="#FDFDFD"/>
<stop offset="1" stop-color="#253137"/>
</linearGradient>
<linearGradient id="paint92_linear_465_2979" x1="-1.04926e+06" y1="5594.05" x2="-1.04926e+06" y2="1528.15" gradientUnits="userSpaceOnUse">
<stop stop-color="#FDFDFD"/>
<stop offset="1" stop-color="#253137"/>
</linearGradient>
<linearGradient id="paint93_linear_465_2979" x1="-1.04921e+06" y1="5334.49" x2="-1.04921e+06" y2="1457.01" gradientUnits="userSpaceOnUse">
<stop stop-color="#FDFDFD"/>
<stop offset="1" stop-color="#253137"/>
</linearGradient>
<linearGradient id="paint94_linear_465_2979" x1="-1.0493e+06" y1="5056.49" x2="-1.0493e+06" y2="1381" gradientUnits="userSpaceOnUse">
<stop stop-color="#FDFDFD"/>
<stop offset="1" stop-color="#253137"/>
</linearGradient>
<linearGradient id="paint95_linear_465_2979" x1="-1.04926e+06" y1="4885.1" x2="-1.04926e+06" y2="1333.83" gradientUnits="userSpaceOnUse">
<stop stop-color="#FDFDFD"/>
<stop offset="1" stop-color="#253137"/>
</linearGradient>
<linearGradient id="paint96_linear_465_2979" x1="-1.04926e+06" y1="4673.89" x2="-1.04926e+06" y2="1276.03" gradientUnits="userSpaceOnUse">
<stop stop-color="#FDFDFD"/>
<stop offset="1" stop-color="#253137"/>
</linearGradient>
<linearGradient id="paint97_linear_465_2979" x1="-1.04928e+06" y1="4506" x2="-1.04928e+06" y2="1230.04" gradientUnits="userSpaceOnUse">
<stop stop-color="#FDFDFD"/>
<stop offset="1" stop-color="#253137"/>
</linearGradient>
<linearGradient id="paint98_linear_465_2979" x1="-1.04926e+06" y1="4370.19" x2="-1.04926e+06" y2="1192.77" gradientUnits="userSpaceOnUse">
<stop stop-color="#FDFDFD"/>
<stop offset="1" stop-color="#253137"/>
</linearGradient>
<linearGradient id="paint99_linear_465_2979" x1="-1.04923e+06" y1="4257.27" x2="-1.04923e+06" y2="1161.74" gradientUnits="userSpaceOnUse">
<stop stop-color="#FDFDFD"/>
<stop offset="1" stop-color="#253137"/>
</linearGradient>
<linearGradient id="paint100_linear_465_2979" x1="-1.04924e+06" y1="4161.23" x2="-1.04924e+06" y2="1135.35" gradientUnits="userSpaceOnUse">
<stop stop-color="#FDFDFD"/>
<stop offset="1" stop-color="#253137"/>
</linearGradient>
<linearGradient id="paint101_linear_465_2979" x1="-1.04923e+06" y1="4083.1" x2="-1.04923e+06" y2="1113.85" gradientUnits="userSpaceOnUse">
<stop stop-color="#FDFDFD"/>
<stop offset="1" stop-color="#253137"/>
</linearGradient>
<linearGradient id="paint102_linear_465_2979" x1="-1.04925e+06" y1="4085.54" x2="-1.04925e+06" y2="1113.68" gradientUnits="userSpaceOnUse">
<stop stop-color="#FDFDFD"/>
<stop offset="1" stop-color="#253137"/>
</linearGradient>
<linearGradient id="paint103_linear_465_2979" x1="-1.04929e+06" y1="4191.96" x2="-1.04929e+06" y2="1140.98" gradientUnits="userSpaceOnUse">
<stop stop-color="#FDFDFD"/>
<stop offset="1" stop-color="#253137"/>
</linearGradient>
<linearGradient id="paint104_linear_465_2979" x1="-1.04927e+06" y1="4302.22" x2="-1.04927e+06" y2="1169.41" gradientUnits="userSpaceOnUse">
<stop stop-color="#FDFDFD"/>
<stop offset="1" stop-color="#253137"/>
</linearGradient>
<linearGradient id="paint105_linear_465_2979" x1="-1.04926e+06" y1="4414.43" x2="-1.04926e+06" y2="1198.48" gradientUnits="userSpaceOnUse">
<stop stop-color="#FDFDFD"/>
<stop offset="1" stop-color="#253137"/>
</linearGradient>
<linearGradient id="paint106_linear_465_2979" x1="-1.04923e+06" y1="4529.86" x2="-1.04923e+06" y2="1228.51" gradientUnits="userSpaceOnUse">
<stop stop-color="#FDFDFD"/>
<stop offset="1" stop-color="#253137"/>
</linearGradient>
<linearGradient id="paint107_linear_465_2979" x1="-1.04923e+06" y1="4636.84" x2="-1.04923e+06" y2="1256.4" gradientUnits="userSpaceOnUse">
<stop stop-color="#FDFDFD"/>
<stop offset="1" stop-color="#253137"/>
</linearGradient>
<linearGradient id="paint108_linear_465_2979" x1="-1.04925e+06" y1="4741.45" x2="-1.04925e+06" y2="1283.73" gradientUnits="userSpaceOnUse">
<stop stop-color="#FDFDFD"/>
<stop offset="1" stop-color="#253137"/>
</linearGradient>
<linearGradient id="paint109_linear_465_2979" x1="-1.04925e+06" y1="4837.94" x2="-1.04925e+06" y2="1308.99" gradientUnits="userSpaceOnUse">
<stop stop-color="#FDFDFD"/>
<stop offset="1" stop-color="#253137"/>
</linearGradient>
<linearGradient id="paint110_linear_465_2979" x1="-1.04926e+06" y1="4926.49" x2="-1.04926e+06" y2="1332.22" gradientUnits="userSpaceOnUse">
<stop stop-color="#FDFDFD"/>
<stop offset="1" stop-color="#253137"/>
</linearGradient>
<linearGradient id="paint111_linear_465_2979" x1="-1.04925e+06" y1="5011.39" x2="-1.04925e+06" y2="1354.58" gradientUnits="userSpaceOnUse">
<stop stop-color="#FDFDFD"/>
<stop offset="1" stop-color="#253137"/>
</linearGradient>
<linearGradient id="paint112_linear_465_2979" x1="-1.04926e+06" y1="5075.28" x2="-1.04926e+06" y2="1371.38" gradientUnits="userSpaceOnUse">
<stop stop-color="#FDFDFD"/>
<stop offset="1" stop-color="#253137"/>
</linearGradient>
<linearGradient id="paint113_linear_465_2979" x1="-1.04926e+06" y1="5130.79" x2="-1.04926e+06" y2="1386.05" gradientUnits="userSpaceOnUse">
<stop stop-color="#FDFDFD"/>
<stop offset="1" stop-color="#253137"/>
</linearGradient>
<linearGradient id="paint114_linear_465_2979" x1="-1.04923e+06" y1="5164.71" x2="-1.04923e+06" y2="1395" gradientUnits="userSpaceOnUse">
<stop stop-color="#FDFDFD"/>
<stop offset="1" stop-color="#253137"/>
</linearGradient>
<linearGradient id="paint115_linear_465_2979" x1="-1.04929e+06" y1="5136.45" x2="-1.04929e+06" y2="1387.3" gradientUnits="userSpaceOnUse">
<stop stop-color="#FDFDFD"/>
<stop offset="1" stop-color="#253137"/>
</linearGradient>
</defs>
</svg>
