<svg width="155" height="59" viewBox="0 0 155 59" fill="none" xmlns="http://www.w3.org/2000/svg">
<path d="M5.25167 0.8H6.76385L9.09544 12H7.76949L7.28529 9.712H2.40608L1.3334 12H0L5.25167 0.8ZM3.03926 8.368H7.00223L5.78056 2.52L3.03926 8.368Z" fill="#FABF2C"/>
<path d="M14.1633 12L15.6234 0.8H19.0649C19.6261 0.8 20.1127 0.946667 20.5249 1.24C20.9371 1.53333 21.2425 1.93067 21.4412 2.432C21.6448 2.928 21.7044 3.48267 21.62 4.096C21.5405 4.72 21.3319 5.28267 20.9942 5.784C20.6565 6.28 20.2419 6.67467 19.7502 6.968C19.2586 7.256 18.7421 7.4 18.2008 7.4H16.0107L15.4148 12H14.1633ZM16.1895 6.056H18.2604C18.5981 6.056 18.9184 5.968 19.2213 5.792C19.5292 5.61067 19.7875 5.368 19.996 5.064C20.2046 4.75467 20.3312 4.408 20.3759 4.024C20.4306 3.63467 20.3933 3.288 20.2642 2.984C20.14 2.67467 19.9489 2.432 19.6906 2.256C19.4324 2.07467 19.1344 1.984 18.7967 1.984H16.7258L16.1895 6.056Z" fill="#FABF2C"/>
<path d="M28.4845 4H29.7359L28.6931 12H27.4416L27.5682 10.648C27.2752 11.112 26.9028 11.488 26.4509 11.776C26.0039 12.064 25.4974 12.208 24.9312 12.208C24.385 12.208 23.8859 12.0987 23.4339 11.88C22.987 11.656 22.6071 11.3493 22.2942 10.96C21.9814 10.5653 21.7554 10.112 21.6163 9.6C21.4823 9.088 21.4549 8.536 21.5344 7.944C21.6089 7.37333 21.7777 6.83467 22.0409 6.328C22.3091 5.82133 22.6443 5.37867 23.0466 5C23.4538 4.616 23.9032 4.31733 24.3949 4.104C24.8915 3.88533 25.408 3.776 25.9443 3.776C26.5303 3.776 27.0244 3.92533 27.4267 4.224C27.8339 4.51733 28.1443 4.89867 28.3578 5.368L28.4845 4ZM25.0728 10.904C25.5644 10.904 26.0064 10.776 26.3987 10.52C26.796 10.2587 27.1213 9.90667 27.3746 9.464C27.6328 9.02133 27.7967 8.53333 27.8662 8C27.9357 7.456 27.8985 6.96533 27.7545 6.528C27.6154 6.08533 27.382 5.736 27.0542 5.48C26.7314 5.21867 26.3267 5.088 25.84 5.088C25.3484 5.088 24.8841 5.21867 24.447 5.48C24.01 5.74133 23.645 6.09333 23.352 6.536C23.059 6.97333 22.8777 7.46133 22.8082 8C22.7387 8.53867 22.7958 9.02933 22.9795 9.472C23.1633 9.90933 23.4389 10.2587 23.8064 10.52C24.1789 10.776 24.601 10.904 25.0728 10.904Z" fill="#FABF2C"/>
<path d="M30.182 12L31.2249 4H32.4763L32.3497 5C32.6625 4.62667 33.0325 4.33067 33.4596 4.112C33.8917 3.888 34.3436 3.776 34.8154 3.776C35.1034 3.776 35.3765 3.816 35.6348 3.896L34.9494 5.24C34.7607 5.17067 34.567 5.136 34.3684 5.136C33.991 5.136 33.6359 5.23467 33.3032 5.432C32.9704 5.624 32.6899 5.88533 32.4614 6.216C32.2379 6.54667 32.0989 6.91467 32.0443 7.32L31.4334 12H30.182Z" fill="#FABF2C"/>
<path d="M40.3536 5.344H38.6626L37.7836 12H36.5322L37.4112 5.344H36.1299L36.3012 4H37.5825L37.9028 1.488H39.1543L38.834 4H40.5249L40.3536 5.344Z" fill="#FABF2C"/>
<path d="M48.0431 7.024L47.4025 12H46.151L46.7544 7.32C46.809 6.91467 46.7668 6.54667 46.6278 6.216C46.4887 5.88533 46.2777 5.624 45.9946 5.432C45.7115 5.23467 45.3813 5.136 45.0038 5.136C44.6264 5.136 44.2713 5.23467 43.9386 5.432C43.6059 5.624 43.3253 5.88533 43.0969 6.216C42.8734 6.54667 42.7343 6.91467 42.6797 7.32L42.0689 12H40.8174L41.8603 4H43.1118L42.9851 5C43.298 4.62667 43.668 4.33067 44.0951 4.112C44.5271 3.888 44.979 3.776 45.4508 3.776C46.007 3.776 46.4937 3.92267 46.9108 4.216C47.333 4.504 47.6458 4.89333 47.8494 5.384C48.058 5.87467 48.1226 6.42133 48.0431 7.024Z" fill="#FABF2C"/>
<path d="M51.9945 12.208C51.3092 12.208 50.7083 12.0187 50.1918 11.64C49.6803 11.2613 49.298 10.7547 49.0447 10.12C48.7964 9.48 48.7219 8.77333 48.8212 8C48.8957 7.41333 49.0621 6.86667 49.3203 6.36C49.5835 5.848 49.9113 5.4 50.3036 5.016C50.6959 4.62667 51.1304 4.32267 51.6072 4.104C52.0889 3.88533 52.5855 3.776 53.097 3.776C53.6582 3.776 54.1573 3.89867 54.5943 4.144C55.0313 4.384 55.3889 4.72 55.667 5.152C55.9451 5.584 56.1313 6.08533 56.2257 6.656C56.32 7.22667 56.3002 7.83733 56.1661 8.488H50.095C50.09 8.94133 50.1745 9.34667 50.3483 9.704C50.5221 10.056 50.763 10.336 51.0709 10.544C51.3837 10.752 51.7487 10.8587 52.1659 10.864C52.6128 10.864 53.035 10.7413 53.4322 10.496C53.8295 10.2453 54.1672 9.904 54.4453 9.472L55.6744 9.792C55.2821 10.5013 54.7557 11.0827 54.0952 11.536C53.4397 11.984 52.7395 12.208 51.9945 12.208ZM50.1918 7.432H55.0413C55.0611 6.984 54.9817 6.576 54.8029 6.208C54.6241 5.83467 54.3733 5.536 54.0505 5.312C53.7327 5.088 53.3652 4.976 52.948 4.976C52.5259 4.976 52.1262 5.08533 51.7487 5.304C51.3763 5.52267 51.051 5.81867 50.7729 6.192C50.4998 6.56 50.3061 6.97333 50.1918 7.432Z" fill="#FABF2C"/>
<path d="M56.967 12L58.0099 4H59.2613L59.1347 5C59.4476 4.62667 59.8175 4.33067 60.2446 4.112C60.6767 3.888 61.1286 3.776 61.6004 3.776C61.8884 3.776 62.1615 3.816 62.4198 3.896L61.7345 5.24C61.5458 5.17067 61.3521 5.136 61.1534 5.136C60.776 5.136 60.4209 5.23467 60.0882 5.432C59.7555 5.624 59.4749 5.88533 59.2464 6.216C59.023 6.54667 58.8839 6.91467 58.8293 7.32L58.2185 12H56.967Z" fill="#FABF2C"/>
<path d="M64.5271 12.152C64.1298 12.136 63.7499 12.056 63.3874 11.912C63.0248 11.7627 62.7169 11.5627 62.4637 11.312C62.2104 11.056 62.0415 10.7627 61.9571 10.432L63.0969 9.936C63.1465 10.1173 63.2558 10.288 63.4246 10.448C63.5984 10.608 63.8045 10.736 64.0429 10.832C64.2862 10.928 64.537 10.976 64.7953 10.976C65.0684 10.976 65.3316 10.9307 65.5849 10.84C65.8381 10.7493 66.0517 10.616 66.2255 10.44C66.3993 10.2587 66.5011 10.0427 66.5309 9.792C66.5706 9.52533 66.516 9.31733 66.367 9.168C66.218 9.01333 66.0244 8.89333 65.786 8.808C65.5476 8.71733 65.3043 8.632 65.056 8.552C64.5643 8.41333 64.1298 8.248 63.7524 8.056C63.375 7.85867 63.0894 7.61067 62.8957 7.312C62.707 7.008 62.6425 6.62133 62.702 6.152C62.7666 5.656 62.9504 5.22667 63.2533 4.864C63.5612 4.50133 63.9361 4.22133 64.3781 4.024C64.8201 3.82667 65.2795 3.728 65.7562 3.728C66.3571 3.728 66.886 3.86667 67.3429 4.144C67.8047 4.42133 68.1275 4.79733 68.3113 5.272L67.2237 5.904C67.1641 5.712 67.0573 5.544 66.9034 5.4C66.7494 5.25067 66.5657 5.13333 66.3521 5.048C66.1436 4.96267 65.9226 4.91733 65.6892 4.912C65.3962 4.90133 65.1181 4.94133 64.8549 5.032C64.5966 5.12267 64.3806 5.26133 64.2068 5.448C64.033 5.62933 63.9262 5.856 63.8865 6.128C63.8517 6.39467 63.9038 6.59733 64.0429 6.736C64.1869 6.87467 64.3831 6.98667 64.6314 7.072C64.8847 7.152 65.1578 7.24533 65.4508 7.352C65.8828 7.50667 66.2801 7.68533 66.6427 7.888C67.0101 8.09067 67.2957 8.344 67.4993 8.648C67.7029 8.952 67.7724 9.328 67.7079 9.776C67.6384 10.2667 67.4447 10.696 67.1269 11.064C66.809 11.4267 66.4192 11.704 65.9573 11.896C65.4955 12.088 65.0187 12.1733 64.5271 12.152Z" fill="#FABF2C"/>
<path d="M75.9268 7.024L75.2861 12H74.0347L74.6381 7.32C74.6927 6.91467 74.6505 6.54667 74.5114 6.216C74.3724 5.88533 74.1613 5.624 73.8783 5.432C73.5952 5.23467 73.2649 5.136 72.8875 5.136C72.5101 5.136 72.155 5.23467 71.8223 5.432C71.4895 5.624 71.209 5.88533 70.9805 6.216C70.757 6.54667 70.618 6.91467 70.5634 7.32L69.9525 12H68.7011L70.2654 0H71.5169L70.8688 5C71.1816 4.62667 71.5516 4.33067 71.9787 4.112C72.4108 3.888 72.8627 3.776 73.3345 3.776C73.8907 3.776 74.3773 3.92267 74.7945 4.216C75.2166 4.504 75.5295 4.89333 75.7331 5.384C75.9417 5.87467 76.0062 6.42133 75.9268 7.024Z" fill="#FABF2C"/>
<path d="M77.8259 4H79.0773L78.0344 12H76.783L77.8259 4ZM78.6378 2.696C78.4392 2.696 78.2802 2.62667 78.1611 2.488C78.0468 2.34933 78.0046 2.176 78.0344 1.968C78.0642 1.76 78.1536 1.58667 78.3026 1.448C78.4565 1.30933 78.6304 1.24 78.824 1.24C79.0127 1.24 79.1642 1.30933 79.2784 1.448C79.3976 1.58667 79.4448 1.76 79.42 1.968C79.3902 2.176 79.3008 2.34933 79.1518 2.488C79.0028 2.62667 78.8315 2.696 78.6378 2.696Z" fill="#FABF2C"/>
<path d="M80.4736 16H79.2221L80.7939 4H82.0453L81.8666 5.368C82.1794 4.89867 82.5668 4.52 83.0286 4.232C83.4905 3.93867 84.0119 3.792 84.593 3.792C85.1343 3.792 85.6259 3.90133 86.0679 4.12C86.5149 4.33867 86.8923 4.64267 87.2002 5.032C87.513 5.416 87.7365 5.86133 87.8706 6.368C88.0047 6.87467 88.0345 7.41867 87.96 8C87.8855 8.58133 87.7117 9.128 87.4385 9.64C87.1704 10.152 86.8302 10.6027 86.418 10.992C86.0108 11.376 85.5564 11.6773 85.0548 11.896C84.5532 12.1147 84.0318 12.224 83.4905 12.224C82.9094 12.224 82.4253 12.08 82.0379 11.792C81.6555 11.4987 81.3699 11.1173 81.1812 10.648L80.4736 16ZM84.4067 5.096C83.9201 5.096 83.4806 5.22667 83.0882 5.488C82.6959 5.74933 82.3706 6.09867 82.1124 6.536C81.8591 6.97333 81.6977 7.46133 81.6282 8C81.5587 8.53333 81.5909 9.02133 81.725 9.464C81.8641 9.90667 82.095 10.2587 82.4178 10.52C82.7456 10.7813 83.1528 10.912 83.6395 10.912C84.1212 10.912 84.5805 10.784 85.0176 10.528C85.4546 10.2667 85.8246 9.91733 86.1275 9.48C86.4304 9.03733 86.6167 8.544 86.6862 8C86.7557 7.46667 86.6986 6.98133 86.5149 6.544C86.3361 6.10133 86.0629 5.74933 85.6954 5.488C85.3279 5.22667 84.8984 5.096 84.4067 5.096Z" fill="#FABF2C"/>
<path d="M95.68 12H94.4137L92.9611 4H94.1827L95.3076 10.104L98.0042 4H99.2929L100.403 10.104L103.099 4H104.336L100.798 12H99.5238L98.4064 5.84L95.68 12Z" fill="#FABF2C"/>
<path d="M105.542 4H106.793L105.751 12H104.499L105.542 4ZM106.354 2.696C106.155 2.696 105.996 2.62667 105.877 2.488C105.763 2.34933 105.721 2.176 105.751 1.968C105.78 1.76 105.87 1.58667 106.019 1.448C106.173 1.30933 106.347 1.24 106.54 1.24C106.729 1.24 106.88 1.30933 106.995 1.448C107.114 1.58667 107.161 1.76 107.136 1.968C107.106 2.176 107.017 2.34933 106.868 2.488C106.719 2.62667 106.548 2.696 106.354 2.696Z" fill="#FABF2C"/>
<path d="M112.27 5.344H110.579L109.7 12H108.449L109.328 5.344H108.046L108.218 4H109.499L109.819 1.488H111.071L110.751 4H112.441L112.27 5.344Z" fill="#FABF2C"/>
<path d="M119.967 7.024L119.326 12H118.075L118.678 7.32C118.733 6.91467 118.691 6.54667 118.552 6.216C118.413 5.88533 118.202 5.624 117.919 5.432C117.636 5.23467 117.305 5.136 116.928 5.136C116.55 5.136 116.195 5.23467 115.863 5.432C115.53 5.624 115.249 5.88533 115.021 6.216C114.797 6.54667 114.658 6.91467 114.604 7.32L113.993 12H112.741L114.306 0H115.557L114.909 5C115.222 4.62667 115.592 4.33067 116.019 4.112C116.451 3.888 116.903 3.776 117.375 3.776C117.931 3.776 118.418 3.92267 118.835 4.216C119.257 4.504 119.57 4.89333 119.773 5.384C119.982 5.87467 120.047 6.42133 119.967 7.024Z" fill="#FABF2C"/>
<path d="M10.2189 51.6658C8.81284 51.6658 7.49091 51.3886 6.25316 50.8341C5.0154 50.2696 3.92617 49.4973 2.98547 48.517C2.05468 47.5268 1.32193 46.3781 0.787214 45.0711C0.262405 43.764 0 42.3678 0 40.8825C0 39.3972 0.262405 38.001 0.787214 36.6939C1.32193 35.3868 2.05468 34.2431 2.98547 33.2628C3.92617 32.2726 5.0154 31.5003 6.25316 30.9458C7.49091 30.3813 8.81284 30.0991 10.2189 30.0991C11.9023 30.0991 13.452 30.4903 14.868 31.2725C16.2839 32.0548 17.4573 33.0945 18.3881 34.3917L16.175 35.5799C15.4819 34.6689 14.6055 33.9461 13.546 33.4114C12.4964 32.8668 11.3874 32.5945 10.2189 32.5945C9.13961 32.5945 8.1296 32.8123 7.1889 33.248C6.25811 33.6837 5.44119 34.2828 4.73814 35.0452C4.03509 35.8077 3.48553 36.689 3.08944 37.6891C2.69336 38.6892 2.49532 39.7536 2.49532 40.8825C2.49532 42.0212 2.69336 43.0906 3.08944 44.0907C3.49543 45.0909 4.04995 45.9721 4.75299 46.7346C5.46594 47.4971 6.28781 48.0961 7.21861 48.5318C8.1593 48.9576 9.15941 49.1705 10.2189 49.1705C11.427 49.1705 12.5459 48.8982 13.5757 48.3536C14.6154 47.7991 15.4819 47.0762 16.175 46.185L18.3881 47.3881C17.4573 48.6853 16.2839 49.725 14.868 50.5073C13.452 51.2796 11.9023 51.6658 10.2189 51.6658Z" fill="#FABF2C"/>
<path d="M21.3943 51.2796V29H23.8896V51.2796H21.3943Z" fill="#FABF2C"/>
<path d="M27.4573 36.4266H29.9527V51.2796H27.4573V36.4266ZM28.7347 34.0055C28.3386 34.0055 28.0069 33.8768 27.7396 33.6193C27.4722 33.3619 27.3385 33.04 27.3385 32.6539C27.3385 32.2677 27.4722 31.9459 27.7396 31.6884C28.0069 31.431 28.3337 31.3022 28.7199 31.3022C29.106 31.3022 29.4328 31.431 29.7002 31.6884C29.9675 31.9459 30.1012 32.2677 30.1012 32.6539C30.1012 33.04 29.9675 33.3619 29.7002 33.6193C29.4427 33.8768 29.1209 34.0055 28.7347 34.0055Z" fill="#FABF2C"/>
<path d="M39.8527 51.6658C38.4862 51.6658 37.2386 51.3143 36.1097 50.6113C34.9908 49.9082 34.0947 48.9675 33.4213 47.7892C32.7579 46.6009 32.4262 45.2889 32.4262 43.8531C32.4262 42.7639 32.6193 41.7489 33.0054 40.8082C33.3916 39.8576 33.9214 39.0258 34.5947 38.3129C35.278 37.59 36.0701 37.0256 36.9712 36.6196C37.8723 36.2137 38.8328 36.0107 39.8527 36.0107C40.9717 36.0107 41.9965 36.2384 42.9273 36.6939C43.868 37.1395 44.6701 37.7633 45.3335 38.5654C46.0069 39.3675 46.5069 40.2983 46.8337 41.3578C47.1703 42.4173 47.2941 43.5511 47.205 44.7591H35.0849C35.2037 45.6008 35.481 46.3534 35.9166 47.0168C36.3523 47.6703 36.9069 48.1902 37.5802 48.5764C38.2634 48.9626 39.0209 49.1606 39.8527 49.1705C40.7439 49.1705 41.5509 48.9428 42.2738 48.4873C42.9966 48.0219 43.5808 47.3881 44.0264 46.5861L46.5663 47.1802C45.9722 48.4972 45.0761 49.5765 43.8779 50.4182C42.6798 51.2499 41.338 51.6658 39.8527 51.6658ZM35.0106 42.7985H44.6948C44.6156 41.9668 44.3483 41.2092 43.8928 40.526C43.4373 39.8329 42.858 39.2783 42.1549 38.8625C41.4519 38.4466 40.6845 38.2386 39.8527 38.2386C39.0209 38.2386 38.2585 38.4416 37.5653 38.8476C36.8722 39.2536 36.2979 39.8032 35.8424 40.4963C35.3968 41.1795 35.1195 41.947 35.0106 42.7985Z" fill="#FABF2C"/>
<path d="M62.8381 42.041V51.2796H60.3428V42.5906C60.3428 41.838 60.1596 41.1548 59.7932 40.5409C59.4269 39.9269 58.9367 39.4417 58.3228 39.0853C57.7089 38.7189 57.0256 38.5357 56.2731 38.5357C55.5304 38.5357 54.8472 38.7189 54.2233 39.0853C53.6094 39.4417 53.1192 39.9269 52.7529 40.5409C52.3865 41.1548 52.2033 41.838 52.2033 42.5906V51.2796H49.708V36.4266H52.2033V38.2832C52.7281 37.59 53.3916 37.0405 54.1936 36.6345C54.9957 36.2186 55.8671 36.0107 56.8078 36.0107C57.9168 36.0107 58.9268 36.283 59.8378 36.8276C60.7587 37.3623 61.4865 38.0851 62.0212 38.9961C62.5658 39.9071 62.8381 40.9221 62.8381 42.041Z" fill="#FABF2C"/>
<path d="M73.5024 38.9219H70.1308L70.1159 51.2796H67.6206L67.6354 38.9219H65.0807V36.4266H67.6354L67.6206 31.7627H70.1159L70.1308 36.4266H73.5024V38.9219Z" fill="#FABF2C"/>
<path d="M74.9768 38.2386L75.8977 30.4853H78.393L76.6404 38.2386H74.9768Z" fill="#FABF2C"/>
<path d="M85.5979 51.5619C84.7959 51.5322 84.0136 51.3836 83.2512 51.1163C82.4986 50.839 81.8352 50.4677 81.2608 50.0023C80.6964 49.527 80.2855 48.9824 80.028 48.3684L82.1669 47.4475C82.3154 47.7842 82.5828 48.1011 82.9689 48.3981C83.3551 48.6952 83.8007 48.9329 84.3057 49.1111C84.8107 49.2893 85.3207 49.3785 85.8356 49.3785C86.3802 49.3785 86.8902 49.2943 87.3655 49.1259C87.8408 48.9576 88.2269 48.7101 88.524 48.3833C88.831 48.0466 88.9845 47.6456 88.9845 47.1802C88.9845 46.6851 88.8161 46.2989 88.4794 46.0217C88.1527 45.7345 87.7368 45.5117 87.2318 45.3533C86.7367 45.1849 86.2317 45.0265 85.7168 44.878C84.6969 44.6205 83.7859 44.3135 82.9838 43.9571C82.1817 43.5907 81.548 43.1302 81.0826 42.5757C80.6271 42.0113 80.3994 41.2934 80.3994 40.422C80.3994 39.5011 80.6519 38.704 81.1569 38.0307C81.6718 37.3573 82.3451 36.8375 83.1769 36.4711C84.0087 36.1047 84.8998 35.9215 85.8504 35.9215C87.0486 35.9215 88.1428 36.179 89.133 36.6939C90.1232 37.2088 90.8609 37.9069 91.3461 38.7882L89.3409 39.9616C89.1726 39.6051 88.9151 39.2932 88.5686 39.0258C88.222 38.7486 87.8259 38.5307 87.3803 38.3723C86.9347 38.2139 86.4792 38.1297 86.0138 38.1198C85.4395 38.1 84.8998 38.1743 84.3948 38.3426C83.8997 38.5109 83.4987 38.7684 83.1917 39.115C82.8947 39.4516 82.7461 39.8725 82.7461 40.3775C82.7461 40.8726 82.9046 41.2489 83.2214 41.5063C83.5482 41.7638 83.9691 41.9717 84.484 42.1301C85.0088 42.2787 85.5781 42.452 86.1921 42.65C87.0931 42.9372 87.9348 43.2689 88.7171 43.6452C89.4994 44.0214 90.1281 44.4918 90.6034 45.0562C91.0886 45.6206 91.3263 46.3187 91.3164 47.1505C91.3164 48.0615 91.0441 48.8586 90.4995 49.5418C89.9548 50.2152 89.2469 50.7301 88.3755 51.0866C87.514 51.443 86.5882 51.6015 85.5979 51.5619Z" fill="#FABF2C"/>
<path d="M100.998 51.2796V29H103.493V51.2796H100.998Z" fill="#FABF2C"/>
<path d="M113.451 51.6658C112.085 51.6658 110.837 51.3143 109.708 50.6113C108.589 49.9082 107.693 48.9675 107.02 47.7892C106.356 46.6009 106.024 45.2889 106.024 43.8531C106.024 42.7639 106.218 41.7489 106.604 40.8082C106.99 39.8576 107.52 39.0258 108.193 38.3129C108.876 37.59 109.668 37.0256 110.569 36.6196C111.471 36.2137 112.431 36.0107 113.451 36.0107C114.817 36.0107 116.06 36.3622 117.179 37.0652C118.308 37.7683 119.204 38.7139 119.868 39.9022C120.541 41.0904 120.878 42.4074 120.878 43.8531C120.878 44.9324 120.684 45.9424 120.298 46.8831C119.912 47.8238 119.377 48.6556 118.694 49.3785C118.021 50.0914 117.234 50.6509 116.332 51.0569C115.441 51.4628 114.481 51.6658 113.451 51.6658ZM113.451 49.1705C114.382 49.1705 115.218 48.9279 115.961 48.4427C116.714 47.9476 117.303 47.299 117.729 46.497C118.164 45.685 118.382 44.8037 118.382 43.8531C118.382 42.8827 118.159 41.9915 117.714 41.1795C117.278 40.3676 116.689 39.719 115.946 39.2338C115.204 38.7486 114.372 38.506 113.451 38.506C112.52 38.506 111.683 38.7535 110.941 39.2486C110.198 39.7338 109.609 40.3824 109.173 41.1944C108.738 42.0064 108.52 42.8926 108.52 43.8531C108.52 44.8433 108.743 45.7444 109.188 46.5564C109.634 47.3584 110.233 47.9971 110.985 48.4724C111.738 48.9378 112.56 49.1705 113.451 49.1705Z" fill="#FABF2C"/>
<path d="M134.848 36.4266H137.344V51.7549C137.344 52.7353 137.131 53.6462 136.705 54.4879C136.289 55.3395 135.725 56.0772 135.012 56.701C134.299 57.3348 133.487 57.8249 132.576 58.1715C131.665 58.528 130.714 58.7062 129.724 58.7062C128.694 58.7062 127.699 58.4735 126.739 58.0081C125.778 57.5526 124.937 56.9387 124.214 56.1663C123.501 55.4039 122.986 54.5473 122.669 53.5967L124.956 52.557C125.144 53.2403 125.481 53.8542 125.966 54.3988C126.461 54.9533 127.036 55.389 127.689 55.7059C128.353 56.0326 129.031 56.196 129.724 56.196C130.378 56.196 131.007 56.0822 131.611 55.8544C132.224 55.6267 132.774 55.3098 133.259 54.9038C133.754 54.5077 134.141 54.0374 134.418 53.4928C134.705 52.958 134.848 52.3788 134.848 51.7549V48.7992C134.343 49.6508 133.675 50.3439 132.843 50.8786C132.021 51.4034 131.061 51.6658 129.962 51.6658C128.912 51.6658 127.927 51.4628 127.006 51.0569C126.085 50.6509 125.278 50.0914 124.585 49.3785C123.892 48.6556 123.347 47.8238 122.951 46.8831C122.555 45.9424 122.357 44.9324 122.357 43.8531C122.357 42.7738 122.555 41.7638 122.951 40.8231C123.347 39.8725 123.892 39.0407 124.585 38.3277C125.278 37.6049 126.085 37.0405 127.006 36.6345C127.927 36.2285 128.912 36.0255 129.962 36.0255C131.061 36.0255 132.021 36.2879 132.843 36.8127C133.675 37.3375 134.343 38.0307 134.848 38.8922V36.4266ZM129.977 49.2448C130.937 49.2448 131.769 48.9972 132.472 48.5021C133.185 48.007 133.735 47.3485 134.121 46.5267C134.507 45.7048 134.7 44.8136 134.7 43.8531C134.7 42.8629 134.502 41.9618 134.106 41.1498C133.72 40.328 133.17 39.6744 132.457 39.1892C131.754 38.6941 130.927 38.4466 129.977 38.4466C129.046 38.4466 128.194 38.6892 127.422 39.1744C126.65 39.6596 126.036 40.3131 125.58 41.135C125.135 41.947 124.912 42.853 124.912 43.8531C124.912 44.8532 125.14 45.7642 125.595 46.5861C126.06 47.398 126.674 48.0466 127.437 48.5318C128.209 49.0071 129.056 49.2448 129.977 49.2448Z" fill="#FABF2C"/>
<path d="M147.248 51.6658C145.881 51.6658 144.633 51.3143 143.505 50.6113C142.386 49.9082 141.49 48.9675 140.816 47.7892C140.153 46.6009 139.821 45.2889 139.821 43.8531C139.821 42.7639 140.014 41.7489 140.4 40.8082C140.786 39.8576 141.316 39.0258 141.99 38.3129C142.673 37.59 143.465 37.0256 144.366 36.6196C145.267 36.2137 146.228 36.0107 147.248 36.0107C148.614 36.0107 149.857 36.3622 150.976 37.0652C152.105 37.7683 153.001 38.7139 153.664 39.9022C154.337 41.0904 154.674 42.4074 154.674 43.8531C154.674 44.9324 154.481 45.9424 154.095 46.8831C153.709 47.8238 153.174 48.6556 152.491 49.3785C151.817 50.0914 151.03 50.6509 150.129 51.0569C149.238 51.4628 148.277 51.6658 147.248 51.6658ZM147.248 49.1705C148.178 49.1705 149.015 48.9279 149.758 48.4427C150.51 47.9476 151.099 47.299 151.525 46.497C151.961 45.685 152.179 44.8037 152.179 43.8531C152.179 42.8827 151.956 41.9915 151.51 41.1795C151.075 40.3676 150.486 39.719 149.743 39.2338C149 38.7486 148.168 38.506 147.248 38.506C146.317 38.506 145.48 38.7535 144.737 39.2486C143.995 39.7338 143.406 40.3824 142.97 41.1944C142.534 42.0064 142.316 42.8926 142.316 43.8531C142.316 44.8433 142.539 45.7444 142.985 46.5564C143.43 47.3584 144.029 47.9971 144.782 48.4724C145.535 48.9378 146.356 49.1705 147.248 49.1705Z" fill="#FABF2C"/>
</svg>
